<?xml version="1.0" encoding="utf-8"?>
<!-- Generator: Adobe Illustrator 24.1.0, SVG Export Plug-In . SVG Version: 6.00 Build 0)  -->
<svg version="1.1" xmlns="http://www.w3.org/2000/svg" xmlns:xlink="http://www.w3.org/1999/xlink" x="0px" y="0px"
	 viewBox="0 0 356 356" style="enable-background:new 0 0 356 356;" xml:space="preserve">
<style type="text/css">
	.st0{fill:#FAFAFA;}
	.st1{font-family:'Roboto-Light';}
	.st2{font-size:24.5017px;}
	.st3{font-size:24.5098px;}
	.st4{font-size:24.5095px;}
	.st5{font-size:24.5203px;}
	.st6{font-size:24.5184px;}
	.st7{font-size:24.5064px;}
	.st8{font-size:24.5197px;}
	.st9{font-size:24.5035px;}
	.st10{font-size:24.5104px;}
	.st11{font-size:24.517px;}
	.st12{font-size:24.5047px;}
	.st13{font-size:24.5211px;}
	.st14{font-size:24.5002px;}
	.st15{font-size:24.5127px;}
	.st16{font-size:24.4988px;}
	.st17{font-size:24.5116px;}
	.st18{font-size:24.5015px;}
	.st19{font-size:24.4969px;}
</style>
<g id="Capa_1">
	<g>
		<g>
			<path d="M175,171.2c-0.5-7-1.2-16-6.7-15.1c-5.6,0.9-4.7,6.5-4.2,12c0.9,10.2,0.9,20.4,0.9,27.8c0,8.8,0,11.6,2.8,11.6
				c5.6,0.5,7.4-17.6,7.9-29.2c-5.3,0.7-7.6-0.7-7.6-3C168,173,170.1,171.9,175,171.2z"/>
			<path d="M232.6,173.7c-0.5-6.6-1.2-14.6-6.7-14.1c-4.2,0.3-4.1,5.5-3.6,10.8c0.9,9.6,0.3,19.3,0.3,26.3c0,8.3-0.8,10.9,1.9,10.9
				c5.4,0.4,7.4-16.2,7.9-27.1c-5.6,0.5-7.4-0.9-7.4-2.8C225,175.3,227.1,173.5,232.6,173.7z"/>
			<path d="M197,210.3c1.6,0.7,1.5-2.1,4.2-4.2c2.1-1.6,4.9-1.6,7.2-0.2c2.3,1.4,3.7,3.7,3.7,6c0,4.2-3,4.9-2.5,5.8
				c0.2,0.4,4.3-0.4,5.8-4.4c1.4-3.7-0.6-8.1-5.1-10.7c-4.2-2.3-8.1-1.6-10.7,0.5S196,209.9,197,210.3z"/>
			<path d="M203.5,264.1c-4.9,1.9-10.3,2.7-15.6,2.2c-0.2,0-0.5,0.1-0.5,0.4c0,0.1,0,0.2,0.1,0.3c2.5,4.5,5.6,10.8,8.4,10.7
				c2.7-0.1,6.5-6.9,8.7-12.5C204.8,264.4,204.8,263.4,203.5,264.1z"/>
			<path d="M264.6,200.3c0-7.8-4.2-11.2-6.7-12.5c-3.2-1.7-6.9-2-10.3-0.8c-0.1-4.6,0.3-9.2,1.1-13.8c0.4-2.3,0.6-4.7,0.6-7.1
				l1.2-2.7l4.1,5.6c1.4-4.7,5.3-32.7-2.6-42.1c12.8-14.6,10.2-32.7,7.4-36.4c-2.5,4.1-5.8,9.4-9.7,12.2c0-7.1-4.3-19.6-8.6-22.9
				c-1.3,9.9-5.3,14.5-7.9,17c1-10.2-4.1-15.8-6.1-16.8c-2,8.7-6.6,14.7-18.3,8.1s-59.5-45.2-89.4-2.5c-3.1-3.6-3.6-5.1-4.1-6.1
				c-2.5,4.6-2.5,13.2-2.5,13.2c-2.3-2.5-4-5.4-5.1-8.6c-3.6,6.1-9.7,14.7-1,30c-5.6,13.2-7.6,36.6-7.1,45.8c0.8-1,1.6-1.8,2.3-2.5
				c0.1,9.5,2.2,17.4,4,24.4c0.2,0.9,0.5,1.8,0.7,2.7l-0.5,0.1c-5.3,1-9,4.3-10.7,9.3c-3,9,1.2,22,7,28.6c3.1,3.4,6.5,5.8,9.9,7.1
				c1.4,3.2,4.6,5.3,8.1,5.3c0.9,0,1.8-0.1,2.7-0.4c4.4,16.9,22.1,39.5,22.7,42.1c0.7,3.2,8.1,8.8,8.1,8.8c0,0.2-0.1,0.4-0.2,0.6
				c-0.2,0.2-0.2,0.6,0,0.8c1.8,2.1,4.5,3,5.6,3.3c0.3,0.1,0.5,0.3,0.4,0.6v0.1c-0.1,0.2-0.2,0.4-0.3,0.5c-0.2,0.2-0.1,0.6,0.1,0.8
				c0,0,0,0,0.1,0c2,1.2,7.7,2.4,9.4,2.7c0.3,0,0.5,0.3,0.5,0.5v0.7c0,0.3,0.2,0.5,0.5,0.5c5.6,1.2,12.9-0.2,15.2-0.7
				c0.3-0.1,0.6,0.1,0.7,0.5c0,0.1,0,0.2,0,0.3c-0.1,0.3-0.2,0.5-0.3,0.8c-0.2,0.3-0.1,0.6,0.2,0.8c0.1,0.1,0.2,0.1,0.3,0.1
				c4,0.2,8.2-1.6,9.6-2.3c0.3-0.1,0.6,0,0.7,0.2l0.9,1.5c0.1,0.3,0.5,0.4,0.7,0.2l0,0c1.6-0.8,3.7-2.8,4.7-3.9
				c0.2-0.2,0.5-0.3,0.8-0.1c0.1,0.1,0.2,0.2,0.2,0.4c0.1,0.9,0.1,1.9-0.1,2.8c0,0.3,0.2,0.6,0.5,0.6c0.1,0,0.2,0,0.3,0
				c3.5-1.5,6.5-4.9,7.9-6.7c0.2-0.2,0.6-0.2,0.8,0c0.1,0.1,0.1,0.2,0.2,0.3c0.1,0.9,0.3,2.1,0.4,3.5c0,0.3,0.2,0.6,0.5,0.6
				c0.2,0,0.4-0.1,0.5-0.3c1.6-2.1,4.1-4.9,5.2-6.1c0.2-0.2,0.5-0.3,0.8-0.1c0.1,0.1,0.1,0.1,0.2,0.2c0.3,0.8,0.6,1.6,0.8,2.4
				c0.1,0.3,0.4,0.5,0.7,0.4c0.1,0,0.2-0.1,0.3-0.1c3.6-3.6,8.3-16.2,8.3-16.2l0.8,1.6c0.8-1.9,1.2-3.9,0.9-6
				c-0.1-0.3,0.1-0.6,0.3-0.7s0.5,0,0.7,0.2s0.5,0.3,0.8,0.1c0.1-0.1,0.2-0.2,0.2-0.4c0.9-4,7.1-19.9,9.1-26.2s3.4-11.5,4.4-15.6
				c4.4,2.3,9.7,0.5,12-3.8c1.5-2.8,1.3-6.2-0.4-8.9C262.7,212,264.6,206.4,264.6,200.3z M256,191.4c2.9,1.6,4.5,4.7,4.5,8.9
				c0,4.6-1.3,9.1-3.9,12.9c-0.8-0.4-1.6-0.8-2.4-1c-0.7-0.2-1.4,0.2-1.6,0.9c-0.2,0.7,0.2,1.4,0.9,1.6h0.1c0.5,0.1,0.9,0.3,1.4,0.5
				c-1.3,1.4-2.9,2.5-4.7,3.1c0.5-4.7,0.3-9.3-0.5-14.3c-0.2-1.5-0.4-2.9-0.7-4.2c-0.5-2.9-0.9-5.7-1.2-8.6
				C250.5,190.1,253.5,190.1,256,191.4L256,191.4z M117,219.1c-0.4-0.6-1.2-0.7-1.8-0.3l0,0c-2,1.4-3.2,3.6-3.6,6
				c-2.3-1.3-4.4-3-6.2-5c-5-5.6-8.7-17-6.2-24.6c1.2-3.6,3.8-5.9,7.6-6.6c7.1-1.3,9.8,1,10.3,1.6c0.8,0.8,1.5,1.5,2.1,1.2
				c0.4-0.2,0.5-1.3-0.1-2.2c-0.1-0.2-2.2-4.3-8.4-4.8l0,0c-0.3-1.2-0.6-2.3-0.9-3.6c-1.6-6.3-3.4-13.3-3.8-21.4l1.2,2.6l4.1-5.6
				l3.6,6.1l2.8-6.4l3.6,6.1c0,0,2.3-24.6,12.2-34.6c9.9-9.9,22.6-17,37.1-12.2c13.3,4.4,45.2,29.2,67.4,21.6
				c4.5,10.6,8.9,24.1,6.8,35.4c-1.1,5.8-1.5,11.7-1,17.5c0,0.2,0,0.4,0,0.5c0.3,3.4,0.8,6.6,1.3,9.9c0.2,1.4,0.4,2.7,0.7,4.2
				c0.4,2.7,0.7,5.4,0.8,8.1c-0.4,3.5-6.7,11-10.9,14c-1.6,14.4-6.4,13.4-6.4,12.8c-4,8-11.6,16.4-15.4,19.5
				c-0.1,0.1-0.2,0.3-0.2,0.4c-1,10.6-6.6,16.1-13.1,18.3c-1.3,0.3-2.6,0.6-3.8,0.8c-8.1,0.3-19.4-4.7-20.4-15.4
				c0-0.2-0.1-0.4-0.3-0.5c-12.2-5.5-23.7-21.2-26-25.8c-0.1-0.3-0.4-0.4-0.7-0.3c-3.6,1.4-6.3-6.2-3.1-11.6c0.2-0.3,0-0.6-0.4-0.8
				c-12-7.1-13.7-15-16.9-21.5c-0.8-1.6-5.7,0.2-5.7,2c0,0,0.1,15.5-0.8,19.7c0,0.1,0,0.2,0,0.3c-1.5,1.3-3.4,1.9-5.4,1.8
				c-1,0-2-0.2-3-0.5c0-2,1-3.8,2.6-5C117.3,220.5,117.5,219.7,117,219.1z M120.5,232.4c-1.7,0-3.4-0.7-4.5-1.9c0.3,0,0.7,0.1,1,0.1
				c1.8,0.1,3.6-0.3,5.3-1c0.1,0.8,0.2,1.6,0.3,2.4C122,232.2,121.3,232.4,120.5,232.4L120.5,232.4z M252.2,227.3
				c-1.2,0-2.4-0.3-3.4-1c0,0-0.1,0-0.1-0.1v-0.1c0.4-1.1,0.7-2.3,0.9-3.3c3.2-0.7,6.1-2.3,8.3-4.6c1.5,3.2,0.2,7-3,8.5
				C254,227.1,253.1,227.3,252.2,227.3L252.2,227.3z"/>
			<path d="M112.1,200.4c-2.2-1.6-5-1.6-7.5-0.7c-0.7,0.2-1,0.4-0.8,1.1s1,0.3,1.7,0.1c1.2-0.4,2.5,0,3.7,0.7
				c-1.9,1.1-3.1,3.4-3.7,6.4c-0.1,0.7-0.2,1.4,0.5,1.5c0.1,0,0.2,0,0.3,0c0.6,0,0.6-0.4,0.8-1c0.2-1.1,1.6-4.6,4.5-5.1h0.1
				c1.9,1.9,3,4.9,3,8.7c0,0.7,0.3,1.3,1,1.3s0.5-0.5,0.5-1.3C116.2,206.8,115.2,202.7,112.1,200.4z"/>
			<path d="M111.3,167.6c0.3-0.2,0.4-0.5,0.2-0.8c0,0.1,0-0.1,0-0.1s0-0.1-0.1-0.2c0-0.1-0.1-0.2-0.1-0.4c0-0.1-0.1-0.2-0.1-0.4
				v-0.2v-0.1v-0.1c0,0,0-0.1,0-0.2s0-0.3,0-0.4c0-0.3,0-0.5,0-0.8s-0.3-0.6-0.6-0.6c-0.3,0-0.5,0.3-0.5,0.6
				c-0.1,1.1,0.1,2.2,0.5,3.3C110.7,167.6,111,167.7,111.3,167.6z"/>
			<path d="M117.4,168.2c0.3-0.2,0.4-0.5,0.2-0.8c0,0.1,0-0.1,0-0.1s0-0.1-0.1-0.1c0,0-0.1-0.2-0.1-0.4c0-0.1-0.1-0.2-0.1-0.4
				c0-0.1,0-0.1,0-0.2v-0.1V166v-0.2c0-0.1,0-0.3,0-0.4c0-0.2,0-0.5,0-0.7c0-0.3-0.2-0.6-0.5-0.6c0,0,0,0-0.1,0
				c-0.3,0-0.5,0.3-0.5,0.6c-0.1,1.1,0.1,2.2,0.5,3.3C116.8,168.1,117.1,168.2,117.4,168.2z"/>
			<path d="M123,168.7c0.3-0.2,0.4-0.5,0.2-0.8c0,0.1,0-0.1,0-0.1s0-0.1-0.1-0.2c0,0-0.1-0.2-0.1-0.4c0-0.1-0.1-0.2-0.1-0.4
				c0-0.1,0-0.1,0-0.2s0-0.1,0-0.1v-0.1v-0.2c0-0.1,0-0.3,0-0.4c0-0.3,0-0.5,0-0.8s-0.3-0.5-0.5-0.5c-0.3,0-0.5,0.2-0.6,0.5
				c-0.1,1.1,0.1,2.2,0.5,3.3C122.4,168.7,122.7,168.8,123,168.7z"/>
			<path d="M112.5,174.4c0-0.1,0-0.1-0.1-0.2c0-0.1-0.1-0.2-0.1-0.4c0-0.1-0.1-0.2-0.1-0.4c0-0.1,0-0.1,0-0.2v-0.1V173v-0.2
				c0-0.1,0-0.3,0-0.4c0-0.2,0-0.5,0-0.7c0-0.3-0.2-0.6-0.5-0.6l0,0c-0.3,0-0.6,0.3-0.6,0.6c-0.1,1.1,0.1,2.2,0.5,3.3
				c0.2,0.3,0.5,0.4,0.8,0.2s0.4-0.5,0.2-0.8C112.5,174.6,112.5,174.4,112.5,174.4z"/>
			<path d="M118.1,175c0,0.1,0-0.1,0-0.1s0-0.1-0.1-0.2c0,0-0.1-0.2-0.1-0.4c0-0.1-0.1-0.2-0.1-0.4c0-0.1,0-0.1,0-0.2v-0.1v-0.1
				v-0.2c0-0.1,0-0.3,0-0.4c0-0.3,0-0.5,0-0.8s-0.3-0.5-0.6-0.5c-0.3,0-0.5,0.3-0.5,0.5c-0.1,1.1,0.1,2.2,0.5,3.3
				c0.2,0.3,0.5,0.4,0.8,0.2s0.4-0.5,0.2-0.8L118.1,175z"/>
			<path d="M122.7,172.2c-0.3,0-0.5,0.2-0.6,0.5c-0.1,1.1,0.1,2.2,0.5,3.3c0.2,0.3,0.5,0.4,0.8,0.2s0.4-0.5,0.2-0.8
				c0,0.1,0-0.1,0-0.1s0-0.1-0.1-0.2c0-0.1-0.1-0.2-0.1-0.4c0-0.1-0.1-0.2-0.1-0.4v-0.1v-0.1V174c0,0,0-0.1,0-0.2s0-0.3,0-0.4
				c0-0.3,0-0.5,0-0.8C123.4,172.5,123.1,172.2,122.7,172.2C122.8,172.2,122.8,172.2,122.7,172.2z"/>
			<path d="M114.5,181.5c0-0.1,0-0.1-0.1-0.2c0,0-0.1-0.2-0.1-0.4c0-0.1-0.1-0.2-0.1-0.4c0-0.1,0-0.1,0-0.2v-0.1v-0.1V180
				c0-0.1,0-0.3,0-0.4c0-0.3,0-0.5,0-0.8s-0.2-0.6-0.5-0.6l0,0c-0.3-0.1-0.6,0.1-0.7,0.4v0.1c-0.1,1.1,0.1,2.2,0.5,3.3
				c0.2,0.3,0.5,0.4,0.8,0.2C114.6,182.2,114.6,181.9,114.5,181.5C114.6,181.7,114.5,181.5,114.5,181.5z"/>
			<path d="M119.5,182.5c0,0,0-0.1-0.1-0.2c0-0.1-0.1-0.2-0.1-0.4s-0.1-0.2-0.1-0.4c0-0.1,0-0.1,0-0.2v-0.1v-0.1V181
				c0-0.1,0-0.3,0-0.4c0-0.3,0-0.5,0-0.8s-0.2-0.6-0.5-0.6s-0.6,0.3-0.6,0.6c-0.1,1.1,0.1,2.2,0.5,3.3c0.2,0.3,0.5,0.4,0.8,0.2
				s0.4-0.5,0.2-0.8C119.6,182.7,119.5,182.5,119.5,182.5z"/>
			<path d="M124.2,183.7c0.2,0.3,0.5,0.4,0.8,0.2s0.4-0.5,0.2-0.8c0,0.1,0-0.1,0-0.1s0-0.1-0.1-0.2s-0.1-0.2-0.1-0.4
				s-0.1-0.2-0.1-0.4c0-0.1,0-0.1,0-0.2c0-0.1,0-0.1,0-0.1v-0.1v-0.2c0-0.1,0-0.3,0-0.4c0-0.2,0-0.5,0-0.7c0-0.3-0.2-0.5-0.5-0.5
				s-0.5,0.3-0.5,0.5C123.7,181.5,123.8,182.7,124.2,183.7z"/>
			<path d="M125.7,190.8c0.2,0.3,0.5,0.4,0.8,0.2s0.4-0.5,0.2-0.8c0,0.1,0-0.1,0-0.1s0-0.1-0.1-0.2c0,0-0.1-0.2-0.1-0.4
				c0-0.1-0.1-0.2-0.1-0.4c0-0.1,0-0.1,0-0.2s0-0.1,0-0.1v-0.1v-0.2c0-0.1,0-0.3,0-0.4c0-0.3,0-0.5,0-0.8s-0.2-0.6-0.5-0.6
				c0,0,0,0-0.1,0c-0.3,0-0.5,0.3-0.5,0.6C125.2,188.6,125.3,189.8,125.7,190.8z"/>
			<path d="M122.4,198.1c0.3-0.2,0.4-0.5,0.2-0.8c0,0.1,0-0.1,0-0.1l-0.1-0.2c0-0.1-0.1-0.2-0.1-0.4c0-0.1-0.1-0.2-0.1-0.4V196v-0.1
				v-0.1v-0.2c0-0.1,0-0.2,0-0.4c0-0.3,0-0.5,0-0.8s-0.2-0.6-0.5-0.6s-0.6,0.2-0.6,0.5l0,0c-0.1,1.1,0,2.2,0.5,3.3
				C121.8,198.2,122.1,198.3,122.4,198.1L122.4,198.1z"/>
			<path d="M128.5,198.6c0.3-0.2,0.4-0.5,0.2-0.8c0,0.1,0-0.1,0-0.1s0-0.1-0.1-0.2c0-0.1-0.1-0.2-0.1-0.4c0-0.1-0.1-0.2-0.1-0.4
				c0-0.1,0-0.1,0-0.2v-0.1v-0.1c0,0,0-0.1,0-0.2s0-0.3,0-0.4c0-0.3,0-0.5,0-0.8s-0.2-0.6-0.5-0.6l0,0c-0.3,0-0.6,0.3-0.6,0.6
				c-0.1,1.1,0.1,2.2,0.5,3.3C128,198.6,128.3,198.7,128.5,198.6z"/>
			<path d="M154.8,154.6c1.5-1.5,3.6-3.4,5.1-3.8c3.7-0.9,9.6,3.1,16.4,7.7c1.4,0.9,2.8,1.9,4.3,2.9c0.3,0.2,0.7,0.3,1.1,0.3
				c0.7,0,1.1-0.9,1.5-1.5c0.5-0.9,0.4-1.7-0.5-2.3c-1.4-0.9-2.8-1.9-4.1-2.8c-8-5.4-14.3-9.7-19.7-8.3c-2.7,0.7-4.4,3.3-6.1,6.7
				c-0.5,1.1-0.5,1.5,0,2S154,155.4,154.8,154.6z"/>
			<path d="M216.6,162.5c0.4,0,0.8-0.1,1.1-0.3l2.1-1.4c5.4-3.6,11-7.3,14-6.5c1.4,0.2,2.6,1,3.3,2.1c0.5,1,1.5,2.4,2.1,1.9
				c0.7-0.7,0.5-2.6,0-3.6c-1.2-2.2-2.3-3.8-4.4-4.4c-4.8-1.2-10.6,2.6-17.3,7.1l-2.1,1.4c-0.9,0.6-0.8,1.5-0.2,2.5
				C215.7,161.8,215.9,162.5,216.6,162.5z"/>
			<path d="M147.6,230.4c0,1.4,0.9,1.9,1.4,0.9c0.5-0.8,1.1-1.6,1.9-2.3c3.3,9.7,11.6,21.8,23.2,28.3c4.4,2.5,9.3,4.1,14.3,4.8
				c6.2,0.7,12.4-0.2,18.1-2.8c2.1-0.9,4.1-2.1,6-3.3c8.1-5.5,14.4-17.6,15.3-19.5c0.9-1.9,2-4,2.3-3.7c0.2,0.2,0,1.1-0.2,2.1
				c-0.5,1.9,0.8,2.1,1.4,0.5c0.2-0.7,0.9-2.8,1.4-4.6c1-3.9,0.7-3.9-1.4-3.3c-7.4,2.8-15.3,7.9-37.1,7.9
				c-13.5,0.1-26.7-3.8-38-11.1c0.7-0.6,1.6-1.2,2.4-1.7c11.3,4.7,28,8.8,42.2,7.5c8.1,1,27.4-2.5,33.5-6.1c1.5-1,3.6-3.1-0.5-2.5
				c-4.1,0.5-12.2,1.5-21.8-2c-2.8-1-3.6,2-9.2,1.5c-5.1-0.5-4.6-3-9.7-2c-23.4,3.1-33,0.5-39.6-2.5c-4.4-2-6.1,0.5-1.5,3.1
				c1.1,0.6,2.4,1.2,3.7,1.9c-1.9,0.5-3.7,1.5-5.1,2.9C148.6,226.3,147.6,228.6,147.6,230.4z M185.6,259c-8.1-1.5-16.3-7.1-18.3-9.7
				c0.5-2,6-5,17,2.4c0.1,0,0.1,0,0.2,0v-0.1c-0.4-1.8,0.1-2.2,1.6-2.2c6.1,0.5,9.7,3.6,11.2,7.6C197.8,258.5,193.1,260.4,185.6,259
				L185.6,259z M220.4,235.4c0,0,0,0.5-0.5,4.6c-30,8.1-54.9,1.5-62.5-10.2C177.7,240,199.6,242.5,220.4,235.4L220.4,235.4z"/>
		</g>
	</g>
</g>
<g id="Capa_2">
	<text transform="matrix(7.302418e-02 0.9973 -0.9973 7.302418e-02 1.6413 183.0037)" class="st0 st1 st2">R</text>
	<text transform="matrix(0.174 0.9847 -0.9847 0.174 3.028 200.7159)" class="st0 st1 st3">U</text>
	<text transform="matrix(0.273 0.962 -0.962 0.273 6.3515 218.7225)" class="st0 st1 st4">B</text>
	<text transform="matrix(0.3627 0.9319 -0.9319 0.3627 11.1438 235.1645)" class="st0 st1 st3">É</text>
	<text transform="matrix(0.4557 0.8901 -0.8901 0.4557 17.0275 250.2086)" class="st0 st1 st3">N</text>
	<text transform="matrix(0.5828 0.8127 -0.8127 0.5828 30.1251 274.034)" class="st0 st1 st5">R</text>
	<text transform="matrix(0.6408 0.7677 -0.7677 0.6408 40.4849 288.076)" class="st0 st1 st6">I</text>
	<text transform="matrix(0.696 0.7181 -0.7181 0.696 45.8023 294.6122)" class="st0 st1 st3">D</text>
	<text transform="matrix(0.7637 0.6455 -0.6455 0.7637 58.4002 307.4469)" class="st0 st1 st3">A</text>
	<text transform="matrix(0.8243 0.5662 -0.5662 0.8243 71.6414 318.5371)" class="st0 st1 st3">U</text>
	<text transform="matrix(0.8779 0.4789 -0.4789 0.8779 86.8206 328.8086)" class="st0 st1 st3">R</text>
	<text transform="matrix(0.9214 0.3886 -0.3886 0.9214 102.4459 337.2018)" class="st0 st1 st3">A</text>
	<text transform="matrix(0.9711 0.2388 -0.2388 0.9711 132.7664 348.1384)" class="st0 st1 st3">·</text>
	<text transform="matrix(0.9964 8.463436e-02 -8.463436e-02 0.9964 155.2719 352.6704)" class="st0 st1 st3">P</text>
	<text transform="matrix(0.9999 -1.621340e-02 1.621340e-02 0.9999 172.4331 354.0602)" class="st0 st1 st3">R</text>
	<text transform="matrix(0.9933 -0.1151 0.1151 0.9933 190.1653 353.7243)" class="st0 st1 st3">O</text>
	<text transform="matrix(0.9757 -0.2192 0.2192 0.9757 208.8538 351.4249)" class="st0 st1 st3">D</text>
	<text transform="matrix(0.9474 -0.32 0.32 0.9474 226.6722 347.3011)" class="st0 st1 st3">U</text>
	<text transform="matrix(0.909 -0.4168 0.4168 0.909 244.0018 341.3234)" class="st0 st1 st3">C</text>
	<text transform="matrix(0.8643 -0.5031 0.5031 0.8643 260.067 333.8257)" class="st0 st1 st3">T</text>
	<text transform="matrix(0.7861 -0.6181 0.6181 0.7861 280.3511 321.3312)" class="st0 st1 st7">D</text>
	<text transform="matrix(0.7229 -0.691 0.691 0.7229 294.5701 309.9615)" class="st0 st1 st3">E</text>
	<text transform="matrix(0.6563 -0.7545 0.7545 0.6563 306.1023 298.8207)" class="st0 st1 st3">S</text>
	<text transform="matrix(0.6018 -0.7987 0.7987 0.6018 316.695 286.3321)" class="st0 st1 st8">I</text>
	<text transform="matrix(0.5391 -0.8422 0.8422 0.5391 321.8849 279.6505)" class="st0 st1 st9">G</text>
	<text transform="matrix(0.4431 -0.8964 0.8964 0.4431 332.0596 263.5479)" class="st0 st1 st3">N</text>
	<text transform="matrix(0.3495 -0.9369 0.9369 0.3495 340.5681 245.881)" class="st0 st1 st3">E</text>
	<text transform="matrix(0.258 -0.9661 0.9661 0.258 346.1277 230.7911)" class="st0 st1 st7">R</text>
	<text transform="matrix(0.1022 -0.9948 0.9948 0.1022 352.8248 198.9993)" class="st0 st1 st3">·</text>
	<text transform="matrix(-5.259738e-02 -0.9986 0.9986 -5.259738e-02 354.2249 176.1341)" class="st0 st1 st3">R</text>
	<text transform="matrix(-0.154 -0.9881 0.9881 -0.154 353.1951 158.4002)" class="st0 st1 st3">U</text>
	<text transform="matrix(-0.2531 -0.9674 0.9674 -0.2531 350.2395 140.3308)" class="st0 st1 st3">B</text>
	<text transform="matrix(-0.3436 -0.9391 0.9391 -0.3436 345.7802 123.7901)" class="st0 st1 st3">É</text>
	<text transform="matrix(-0.438 -0.899 0.899 -0.438 340.2078 108.6306)" class="st0 st1 st10">N</text>
	<text transform="matrix(-0.5663 -0.8242 0.8242 -0.5663 327.5999 84.5521)" class="st0 st1 st3">R</text>
	<text transform="matrix(-0.6248 -0.7808 0.7808 -0.6248 317.5212 70.2978)" class="st0 st1 st11">I</text>
	<text transform="matrix(-0.6811 -0.7322 0.7322 -0.6811 312.334 63.6509)" class="st0 st1 st12">D</text>
	<text transform="matrix(-0.7507 -0.6607 0.6607 -0.7507 299.9997 50.5693)" class="st0 st1 st13">A</text>
	<text transform="matrix(-0.8127 -0.5827 0.5827 -0.8127 286.976 39.2066)" class="st0 st1 st3">U</text>
	<text transform="matrix(-0.8679 -0.4967 0.4967 -0.8679 272.0194 28.6409)" class="st0 st1 st3">R</text>
	<text transform="matrix(-0.9134 -0.4072 0.4072 -0.9134 256.5648 19.9301)" class="st0 st1 st14">A</text>
	<text transform="matrix(-0.9659 -0.259 0.259 -0.9659 226.4804 8.3774)" class="st0 st1 st15">·</text>
	<text transform="matrix(-0.9945 -0.1048 0.1048 -0.9945 204.0738 3.3854)" class="st0 st1 st3">P</text>
	<text transform="matrix(-0.9999 -1.621341e-02 1.621341e-02 -0.9999 186.9931 1.7497)" class="st0 st1 st3">R</text>
	<text transform="matrix(-0.9955 9.515093e-02 -9.515093e-02 -0.9955 169.1823 1.6351)" class="st0 st1 st3">O</text>
	<text transform="matrix(-0.9799 0.1993 -0.1993 -0.9799 150.4598 3.5593)" class="st0 st1 st3">D</text>
	<text transform="matrix(-0.9537 0.3006 -0.3006 -0.9537 132.5633 7.3142)" class="st0 st1 st3">U</text>
	<text transform="matrix(-0.9173 0.3982 -0.3982 -0.9173 115.1187 12.941)" class="st0 st1 st3">C</text>
	<text transform="matrix(-0.8744 0.4852 -0.4852 -0.8744 98.9126 20.1058)" class="st0 st1 st16">T</text>
	<text transform="matrix(-0.7987 0.6018 -0.6018 -0.7987 78.3604 32.193)" class="st0 st1 st8">D</text>
	<text transform="matrix(-0.7369 0.676 -0.676 -0.7369 63.9264 43.2706)" class="st0 st1 st17">E</text>
	<text transform="matrix(-0.6712 0.7413 -0.7413 -0.6712 52.1712 54.1759)" class="st0 st1 st18">S</text>
	<text transform="matrix(-0.6179 0.7863 -0.7863 -0.6179 41.3219 66.4587)" class="st0 st1 st3">I</text>
	<text transform="matrix(-0.5558 0.8313 -0.8313 -0.5558 36.0048 73.0258)" class="st0 st1 st3">G</text>
	<text transform="matrix(-0.4613 0.8873 -0.8873 -0.4613 25.5084 88.9174)" class="st0 st1 st3">N</text>
	<text transform="matrix(-0.3686 0.9296 -0.9296 -0.3686 16.6439 106.395)" class="st0 st1 st3">E</text>
	<text transform="matrix(-0.2772 0.9608 -0.9608 -0.2772 10.7716 121.38)" class="st0 st1 st3">R</text>
	<text transform="matrix(-0.1221 0.9925 -0.9925 -0.1221 3.4345 153.0143)" class="st0 st1 st19">·</text>
</g>
</svg>
