<?xml version="1.0" encoding="utf-8"?>
<!-- Generator: Adobe Illustrator 23.0.6, SVG Export Plug-In . SVG Version: 6.00 Build 0)  -->
<svg version="1.1" id="Capa_1" xmlns="http://www.w3.org/2000/svg" xmlns:xlink="http://www.w3.org/1999/xlink" x="0px" y="0px"
	 viewBox="0 0 356 356" style="enable-background:new 0 0 356 356;" xml:space="preserve">
<style type="text/css">
	.st0{display:none;}
	.st1{display:inline;}
	.st2{fill:#FAFAFA;}
</style>
<g>
	<g id="Capa_4" class="st0">
		<g id="R7TSMy.tif" class="st1">
		</g>
	</g>
	<g id="XMLID_1_">
		<g>
			<path class="st2" d="M8.1,186.4l-8,0.6L0,185.5l17.6-1.3l0.5,6c0.2,1.9-0.2,3.3-0.9,4.4c-0.8,1.1-1.9,1.6-3.5,1.8
				c-0.9,0.1-1.8-0.2-2.6-0.6c-0.8-0.5-1.4-1.2-1.8-2.2c-0.2,1.1-0.6,1.9-1.3,2.5S6.4,197,5.4,197l-1.6,0.2c-0.5,0.1-1,0.2-1.5,0.3
				c-0.4,0.2-0.8,0.4-1,0.7H0.9l-0.1-1.5c0.2-0.3,0.6-0.5,1.2-0.7s1.1-0.2,1.6-0.3l1.6-0.2c1.1-0.1,1.9-0.5,2.5-1.2
				c0.5-0.8,0.8-1.7,0.7-3L8.1,186.4z M9.3,186.2l0.3,4.3c0.2,1.5,0.5,2.7,1.2,3.4s1.6,1,2.6,0.9c1.2-0.1,2-0.5,2.6-1.3
				c0.5-0.8,0.8-1.9,0.7-3.4l-0.3-4.5L9.3,186.2z"/>
			<path class="st2" d="M21.4,213l-11.8,2.2c-1.9,0.3-3.4,0-4.7-0.9c-1.2-0.9-2-2.4-2.3-4.3s-0.1-3.4,0.7-4.7s2.2-2.2,4-2.5
				l11.8-2.2l0.2,1.4l-11.8,2.2c-1.5,0.2-2.6,0.9-3.2,1.9s-0.9,2.2-0.6,3.6c0.2,1.4,0.9,2.6,1.9,3.3c0.9,0.8,2.2,1,3.7,0.7l11.8-2.2
				L21.4,213z"/>
			<path class="st2" d="M5.5,222.5l16.9-4.9l1.5,5c0.5,1.8,0.5,3.3,0.1,4.4s-1.4,2-3,2.5c-0.9,0.2-1.7,0.2-2.5-0.1s-1.4-0.9-1.9-1.6
				c0.1,1.1-0.2,2.1-0.7,2.9c-0.6,0.9-1.4,1.5-2.4,1.8c-1.5,0.5-2.8,0.3-4-0.5c-1.1-0.8-1.9-1.9-2.3-3.6L5.5,222.5z M14.1,221.5
				l-7,2l1.3,4.5c0.4,1.2,0.9,2.2,1.8,2.7s1.8,0.6,2.9,0.3c1-0.3,1.8-0.9,2.3-1.7c0.5-0.9,0.5-1.9,0.2-3.1L14.1,221.5z M15.2,221.1
				l1.2,3.9c0.4,1.2,0.9,2.1,1.6,2.6s1.6,0.6,2.6,0.3c1.1-0.3,1.8-0.9,2.1-1.8c0.3-0.9,0.3-2-0.1-3.3l-1-3.6L15.2,221.1z"/>
			<path class="st2" d="M22.4,245.3l-3.1-7.9l-6.8,2.7l3.6,9.1l-1.2,0.5l-4.1-10.4l16.4-6.5l4.1,10.3l-1.2,0.5l-3.6-9l-6.1,2.5
				l3.1,7.9L22.4,245.3z M33.8,237.4l0.6,1.6l-0.1,0.1l-4-1.6l-0.5-1.2L33.8,237.4z"/>
			<path class="st2" d="M23.1,265.9l-0.7-1.2l8.9-15.9l-0.1-0.1l-13.4,7l-0.7-1.3l15.7-8.1l0.7,1.3l-8.8,15.9l0.1,0.1l13.4-7
				l0.7,1.2L23.1,265.9z"/>
			<path class="st2" d="M38.1,274.7l-6.4,4.7l-0.9-1.2L45,267.8l3.5,4.8c1.1,1.5,1.6,2.9,1.6,4.3s-0.8,2.4-2,3.3
				c-0.8,0.5-1.6,0.9-2.5,0.9s-1.8-0.3-2.6-0.9c0.4,1,0.5,1.9,0.2,2.8c-0.3,0.8-0.9,1.5-1.7,2.2l-1.3,1c-0.5,0.3-0.8,0.7-1.1,1
				s-0.5,0.8-0.5,1.2l-0.2,0.2l-0.9-1.2c0.1-0.4,0.2-0.9,0.6-1.2c0.4-0.4,0.8-0.8,1.2-1.1l1.3-0.9c0.9-0.6,1.3-1.4,1.5-2.3
				c0.1-0.9-0.2-1.9-1-2.9L38.1,274.7z M39.1,273.9l2.6,3.5c0.9,1.3,1.9,2,2.9,2.2c0.9,0.2,1.9,0,2.7-0.6c0.9-0.7,1.5-1.5,1.6-2.5
				c0.1-0.9-0.3-2-1.2-3.3l-2.7-3.6L39.1,273.9z"/>
			<path class="st2" d="M43.1,294l-0.9-1.1l13.4-11.5l0.9,1.1L43.1,294z"/>
			<path class="st2" d="M47.7,299.2l12.5-12.4l3.7,3.6c1.6,1.5,2.3,3.3,2.3,5.3s-0.9,3.8-2.5,5.4l-1.6,1.6c-1.6,1.6-3.4,2.4-5.4,2.4
				s-3.8-0.8-5.3-2.2L47.7,299.2z M60.4,288.7l-10.8,10.7l2.6,2.6c1.2,1.2,2.6,1.9,4.3,1.8c1.6-0.1,3.2-0.8,4.5-2.1l1.6-1.6
				c1.3-1.3,2-2.8,2.1-4.4s-0.5-3.1-1.7-4.3L60.4,288.7z"/>
			<path class="st2" d="M71.2,314.1L65,309l-4.5,2.6l-1.2-0.9l16.4-9.3l1.1,0.9L70.7,320l-1.2-0.9L71.2,314.1z M66.2,308.2l5.5,4.5
				l3.3-9.6l-0.1-0.1L66.2,308.2z"/>
			<path class="st2" d="M94.5,314.9l-6.7,9.9c-1.1,1.6-2.4,2.5-3.9,2.7c-1.6,0.2-3.1-0.2-4.7-1.3c-1.6-1-2.6-2.3-3-3.8s-0.1-3,1-4.6
				l6.7-9.9l1.2,0.8l-6.7,9.9c-0.9,1.2-1.1,2.5-0.9,3.6c0.3,1.2,1,2.2,2.2,2.9c1.2,0.8,2.4,1.2,3.7,0.9c1.2-0.2,2.3-0.9,3.1-2.2
				l6.7-9.9L94.5,314.9z"/>
			<path class="st2" d="M95.4,326.5l-3.7,7l-1.2-0.7l8.2-15.6l5.3,2.8c1.7,0.9,2.8,1.9,3.3,3.1s0.4,2.5-0.3,3.9
				c-0.5,0.9-1.1,1.5-1.9,1.9c-0.9,0.4-1.8,0.5-2.8,0.4c0.9,0.8,1.3,1.5,1.4,2.4s-0.1,1.8-0.6,2.7l-0.8,1.5
				c-0.2,0.5-0.5,0.9-0.5,1.4c-0.1,0.5-0.1,0.9,0.1,1.2l-0.2,0.2l-1.3-0.7c-0.2-0.4-0.2-0.9,0-1.4s0.3-1,0.6-1.5l0.8-1.4
				c0.5-0.9,0.6-1.9,0.2-2.8c-0.3-0.9-1-1.6-2.2-2.2L95.4,326.5z M95.9,325.4l3.9,2c1.4,0.8,2.6,1,3.6,0.8c0.9-0.2,1.7-0.9,2.2-1.8
				c0.5-1,0.6-2,0.3-2.9c-0.4-0.9-1.2-1.7-2.5-2.4l-4-2.1L95.9,325.4z"/>
			<path class="st2" d="M117.7,340.1l-7.5-3l-3.5,3.9l-1.4-0.5l12.8-13.9l1.2,0.5l-0.4,18.8l-1.4-0.5L117.7,340.1z M111.2,336.1
				l6.6,2.6l0.3-10.1H118L111.2,336.1z"/>
			<path class="st2" d="M147.1,335.4l-2.8,11.6c-0.5,1.9-1.4,3.2-2.7,3.9c-1.4,0.7-3,0.9-4.8,0.4s-3.2-1.3-4-2.6s-1.1-2.8-0.7-4.6
				l2.8-11.6l1.4,0.3l-2.8,11.6c-0.4,1.5-0.2,2.7,0.5,3.7s1.7,1.7,3.1,2s2.6,0.2,3.7-0.4c1.1-0.5,1.8-1.6,2.2-3.1l2.8-11.6
				L147.1,335.4z"/>
			<path class="st2" d="M156.1,344.4l6-6.8l1.7,0.2l-7,7.8l4.8,9.7l-1.7-0.2l-4.1-8.4l-6.1,7l-1.7-0.2l7.2-8l-4.7-9.4l1.7,0.2
				L156.1,344.4z"/>
			<path class="st2" d="M175.8,348.6l0.2,7.4h-1.5l-0.3-17.6l6.1-0.1c1.9,0,3.3,0.4,4.3,1.3s1.6,2.2,1.6,3.7s-0.5,2.8-1.5,3.8
				c-1,0.9-2.4,1.5-4.3,1.5L175.8,348.6z M175.7,347.4l4.7-0.1c1.5,0,2.6-0.4,3.3-1.2s1.1-1.7,1.1-2.8c0-1.2-0.4-2.1-1.2-2.8
				c-0.8-0.7-1.9-1.1-3.3-1.1l-4.7,0.1L175.7,347.4z"/>
			<path class="st2" d="M192.5,347.5l0.9,7.9l-1.4,0.2l-1.9-17.5l6-0.6c1.9-0.2,3.3,0.1,4.4,0.8c1.1,0.7,1.7,1.9,1.9,3.4
				c0.1,0.9-0.1,1.8-0.5,2.6c-0.5,0.8-1.2,1.4-2.1,1.9c1.1,0.2,1.9,0.5,2.5,1.2c0.5,0.7,0.9,1.5,1,2.6l0.2,1.6
				c0.1,0.5,0.2,1,0.4,1.5c0.2,0.4,0.4,0.8,0.8,1v0.3l-1.5,0.2c-0.3-0.2-0.5-0.6-0.8-1.2c-0.2-0.5-0.3-1-0.4-1.6l-0.2-1.6
				c-0.1-1.1-0.5-1.9-1.3-2.4s-1.8-0.8-3-0.6L192.5,347.5z M192.3,346.2l4.3-0.5c1.6-0.2,2.7-0.6,3.3-1.3c0.7-0.7,0.9-1.6,0.9-2.7
				c-0.2-1.2-0.6-2-1.4-2.6c-0.8-0.5-1.9-0.8-3.4-0.6l-4.5,0.5L192.3,346.2z"/>
			<path class="st2" d="M221.5,343.3c0.5,2.2,0.2,4.2-0.7,5.8c-0.9,1.6-2.4,2.7-4.5,3.1c-2,0.5-3.8,0.1-5.3-1s-2.5-2.8-3-5l-0.6-2.8
				c-0.5-2.2-0.2-4.1,0.6-5.8c0.9-1.6,2.4-2.7,4.4-3.1c2-0.5,3.9-0.1,5.4,1c1.6,1.1,2.5,2.8,3,5L221.5,343.3z M219.4,340.8
				c-0.4-1.9-1.2-3.3-2.4-4.2c-1.2-0.9-2.6-1.2-4.3-0.9c-1.6,0.4-2.8,1.2-3.5,2.6s-0.8,2.9-0.4,4.8l0.6,2.9c0.4,1.9,1.2,3.3,2.3,4.3
				c1.2,1,2.6,1.2,4.2,0.9c1.7-0.4,2.9-1.2,3.6-2.6c0.7-1.3,0.9-2.9,0.5-4.8L219.4,340.8z"/>
			<path class="st2" d="M228.8,348.9l-5.5-16.7l4.9-1.6c2-0.7,4-0.5,5.7,0.4c1.8,0.9,3,2.5,3.7,4.6l0.7,2.2c0.7,2.2,0.6,4.1-0.3,5.9
				c-0.9,1.8-2.3,3-4.4,3.7L228.8,348.9z M225.1,332.9l4.7,14.4l3.5-1.2c1.6-0.5,2.9-1.5,3.5-3.1c0.7-1.5,0.8-3.2,0.2-4.9l-0.7-2.2
				c-0.5-1.8-1.6-3-3-3.8c-1.5-0.8-3-0.9-4.7-0.4L225.1,332.9z"/>
			<path class="st2" d="M250.4,321.6l4.9,10.9c0.8,1.8,0.9,3.3,0.2,4.7c-0.6,1.4-1.9,2.5-3.6,3.3c-1.7,0.8-3.3,0.9-4.7,0.5
				s-2.6-1.5-3.4-3.3l-4.9-10.9l1.3-0.6l4.9,10.9c0.6,1.4,1.5,2.2,2.6,2.6s2.4,0.3,3.7-0.3c1.3-0.6,2.3-1.5,2.7-2.6
				c0.5-1.1,0.5-2.4-0.2-3.7l-4.9-10.9L250.4,321.6z"/>
			<path class="st2" d="M271.3,323.8L271.3,323.8c0.9,1.6,1,3.2,0.5,4.6s-1.5,2.6-3.1,3.6c-1.7,1-3.4,1.2-5.2,0.5
				c-1.8-0.6-3.2-1.9-4.3-3.9l-1.5-2.5c-1.2-1.9-1.6-3.8-1.2-5.6s1.3-3.3,3-4.3c1.6-0.9,3.2-1.2,4.6-0.9c1.4,0.3,2.7,1.2,3.7,2.7
				v0.1l-1.2,0.7c-0.9-1.2-1.9-1.9-3-2.2c-1.1-0.2-2.3,0-3.6,0.7c-1.3,0.8-2.1,1.9-2.3,3.4s0.2,3,1.1,4.6l1.5,2.5
				c0.9,1.6,2.1,2.7,3.6,3.3s2.8,0.5,4.1-0.3c1.3-0.8,2.1-1.6,2.4-2.7s0.2-2.3-0.4-3.7L271.3,323.8z"/>
			<path class="st2" d="M278.7,305.3l-5,3.6l9.6,13.3l-1.2,0.9l-9.6-13.3l-5,3.6l-0.7-1l11-7.9L278.7,305.3z"/>
			<path class="st2" d="M298,310.5l-12.2-12.7l3.7-3.6c1.6-1.5,3.3-2.2,5.4-2.2c2,0.1,3.8,0.9,5.4,2.6l1.6,1.6
				c1.6,1.6,2.3,3.5,2.3,5.4c0,2-0.9,3.7-2.4,5.3L298,310.5z M287.6,297.6l10.5,10.9l2.6-2.6c1.2-1.2,1.9-2.6,1.9-4.3
				s-0.7-3.2-2-4.5l-1.6-1.6c-1.2-1.3-2.7-2-4.4-2.2c-1.7-0.2-3.1,0.5-4.4,1.6L287.6,297.6z"/>
			<path class="st2" d="M311.1,284.3l-5.5,6.4l5.6,4.7l6.4-7.4l0.9,0.8l-7.3,8.4l-13.4-11.5l7.2-8.4l0.9,0.8l-6.3,7.4l5,4.3l5.5-6.4
				L311.1,284.3z"/>
			<path class="st2" d="M323.9,274c-0.8-0.5-1.6-0.7-2.6-0.5c-0.9,0.2-2.1,0.9-3.5,2.2c-1.5,1.3-2.9,2.1-4.1,2.5s-2.3,0.2-3.4-0.6
				c-1.1-0.8-1.7-1.9-1.7-3.3c-0.1-1.4,0.5-2.8,1.5-4.3c1.1-1.5,2.3-2.4,3.8-2.7c1.5-0.3,2.8-0.1,4,0.8v0.1l-0.8,1.1
				c-0.9-0.7-2-0.9-3.1-0.6c-1.1,0.2-2.1,0.9-2.9,2.1c-0.9,1.2-1.2,2.2-1.2,3.3c0.1,1,0.5,1.8,1.2,2.3s1.6,0.6,2.5,0.4
				s2.1-1,3.5-2.2c1.5-1.2,2.9-2.1,4.1-2.4s2.4-0.1,3.5,0.7c1.2,0.8,1.7,1.9,1.7,3.3s-0.5,2.9-1.6,4.3c-1,1.5-2.3,2.4-3.7,3
				c-1.5,0.5-2.9,0.3-4.3-0.7l-0.1-0.1l0.8-1.1c1.1,0.8,2.3,0.9,3.4,0.5c1.2-0.5,2.1-1.2,2.9-2.4c0.8-1.2,1.2-2.2,1.2-3.3
				S324.7,274.7,323.9,274z"/>
			<path class="st2" d="M331.9,269.4l-0.8,1.2l-15.1-9.1l0.8-1.2L331.9,269.4z"/>
			<path class="st2" d="M339.2,251.3c0.3,0.6,0.5,1.5,0.5,2.6c0,1.2-0.4,2.5-1.1,3.9c-0.9,1.9-2.3,3-4.1,3.6s-3.7,0.3-5.7-0.7
				l-2.9-1.5c-1.9-1-3.3-2.3-4-4c-0.7-1.7-0.5-3.5,0.3-5.3c0.9-1.7,1.9-2.8,3.3-3.3c1.3-0.5,2.7-0.5,4.1,0l0.1,0.1l-0.6,1.2
				c-1.2-0.3-2.3-0.3-3.3,0.1c-1,0.4-1.9,1.2-2.6,2.6c-0.7,1.4-0.8,2.8-0.2,4.2c0.6,1.4,1.7,2.5,3.3,3.3l3,1.5
				c1.6,0.9,3.3,1.1,4.7,0.7c1.6-0.4,2.6-1.3,3.4-2.8c0.5-1,0.9-2,0.9-2.9c0.1-0.9,0-1.5-0.2-2l-4.1-2.1l-2.1,4.2l-1.1-0.5l2.8-5.5
				L339.2,251.3z"/>
			<path class="st2" d="M348.4,234l-0.5,1.3l-17.7,4.1v0.1l14.2,5.3l-0.5,1.4l-16.5-6.1l0.5-1.4l17.7-4.1v-0.1l-14.2-5.3l0.5-1.3
				L348.4,234z"/>
			<path class="st2" d="M344.6,215.6l-2.1,8.2l7.1,1.9l2.4-9.4l1.2,0.3l-2.8,10.8l-17.1-4.4l2.8-10.8l1.2,0.3l-2.4,9.4l6.4,1.6
				l2.1-8.2L344.6,215.6z"/>
			<path class="st2" d="M346.5,208.8l7.9,1.2l-0.2,1.4l-17.5-2.7l0.9-5.9c0.3-1.9,0.9-3.3,1.9-4.1c1-0.9,2.3-1.2,3.8-0.9
				c0.9,0.2,1.7,0.5,2.3,1.2c0.6,0.6,1.1,1.5,1.2,2.5c0.5-1,1-1.7,1.8-2.1c0.8-0.4,1.7-0.5,2.7-0.3l1.6,0.2c0.5,0.1,1,0.1,1.5,0
				s0.9-0.2,1.2-0.5l0.3,0.1l-0.2,1.5c-0.3,0.2-0.8,0.4-1.3,0.5s-1.1,0-1.6-0.1l-1.6-0.2c-1.1-0.2-1.9,0.1-2.7,0.6
				c-0.7,0.6-1.2,1.5-1.4,2.7L346.5,208.8z M345.3,208.6l0.7-4.3c0.2-1.5,0.1-2.8-0.4-3.6s-1.3-1.3-2.4-1.5
				c-1.2-0.2-2.1,0.1-2.8,0.7s-1.2,1.7-1.5,3.1l-0.7,4.5L345.3,208.6z"/>
			<path class="st2" d="M349.7,176.6v1.9h-2.2v-1.9H349.7z"/>
			<path class="st2" d="M347.8,154.9l7.8-1.2l0.2,1.4l-17.4,2.8l-0.9-5.9c-0.3-1.9-0.2-3.3,0.5-4.5c0.6-1.2,1.8-1.8,3.3-2.1
				c0.9-0.2,1.8,0,2.6,0.4s1.5,1.1,1.9,2c0.1-1.1,0.5-1.9,1.1-2.6c0.6-0.6,1.5-0.9,2.5-1.2l1.6-0.2c0.5-0.1,1-0.2,1.4-0.5
				s0.7-0.5,0.9-0.8l0.3-0.1l0.2,1.5c-0.2,0.3-0.6,0.6-1.1,0.9s-1,0.4-1.6,0.5l-1.6,0.2c-1.1,0.2-1.9,0.6-2.3,1.5
				c-0.5,0.8-0.6,1.8-0.5,3L347.8,154.9z M346.5,155.1l-0.7-4.3c-0.2-1.5-0.8-2.6-1.5-3.3c-0.7-0.6-1.6-0.9-2.7-0.7
				c-1.2,0.2-1.9,0.7-2.5,1.5c-0.5,0.9-0.6,1.9-0.4,3.4l0.7,4.5L346.5,155.1z"/>
			<path class="st2" d="M332.2,129.5l11.6-3.2c1.9-0.5,3.4-0.3,4.7,0.5c1.3,0.9,2.2,2.2,2.7,4s0.4,3.4-0.3,4.8s-1.9,2.3-3.8,2.9
				l-11.6,3.1l-0.4-1.4l11.6-3.2c1.5-0.4,2.5-1.2,3-2.2c0.5-1.1,0.6-2.3,0.2-3.6c-0.4-1.4-1.1-2.4-2.1-3.1c-1-0.7-2.3-0.8-3.7-0.4
				l-11.6,3.2L332.2,129.5z"/>
			<path class="st2" d="M347.2,118.6l-16.5,6.3l-1.9-4.8c-0.7-1.7-0.9-3.2-0.5-4.4c0.4-1.2,1.2-2.1,2.7-2.7c0.9-0.3,1.7-0.4,2.5-0.2
				c0.8,0.2,1.5,0.7,2.1,1.5c-0.2-1.1-0.1-2.1,0.5-3c0.5-0.9,1.2-1.5,2.3-1.9c1.5-0.5,2.8-0.5,4,0.2s2,1.8,2.6,3.3L347.2,118.6z
				 M337.6,120.8l-1.5-3.8c-0.5-1.2-1.1-2-1.9-2.5s-1.7-0.5-2.7-0.1s-1.7,1.1-1.9,1.9s-0.2,2,0.4,3.3l1.3,3.5L337.6,120.8z
				 M338.8,120.4l6.8-2.6l-1.7-4.3c-0.5-1.2-1.2-2-2-2.5c-0.9-0.5-1.9-0.5-3-0.1c-1,0.4-1.7,1-2.1,1.9s-0.3,1.9,0.1,3.1L338.8,120.4
				z"/>
			<path class="st2" d="M317.7,106.3l-0.8-1.6l0.1-0.1l4.2,1.3l0.6,1.2L317.7,106.3z M328.4,97.4l3.8,7.6l6.5-3.3l-4.4-8.7l1.1-0.5
				l5,10l-15.8,7.9l-5-9.9l1.1-0.5l4.4,8.6l5.9-2.9l-3.8-7.6L328.4,97.4z"/>
			<path class="st2" d="M325.9,76.9l0.8,1.2l-7.5,16.6l0.1,0.1l12.8-8.1l0.8,1.2L318,97.3l-0.8-1.2l7.4-16.6l-0.1-0.1l-12.8,8.1
				l-0.8-1.2L325.9,76.9z"/>
			<path class="st2" d="M310.2,69.5l6-5.3l0.9,1.1l-13.3,11.5l-4-4.5c-1.2-1.4-1.9-2.8-1.9-4.1c-0.1-1.3,0.5-2.5,1.7-3.5
				c0.7-0.6,1.6-0.9,2.4-1c0.9-0.1,1.8,0.2,2.7,0.7c-0.5-1-0.6-1.9-0.5-2.7c0.2-0.8,0.7-1.6,1.6-2.3l1.2-1.1c0.4-0.4,0.8-0.7,1-1.1
				c0.2-0.4,0.4-0.8,0.4-1.2l0.2-0.2l1,1.1c0,0.4-0.2,0.9-0.5,1.2c-0.3,0.5-0.7,0.9-1.1,1.2l-1.2,1.1c-0.9,0.7-1.2,1.5-1.2,2.5
				c0,0.9,0.4,1.9,1.2,2.8L310.2,69.5z M309.2,70.3l-2.9-3.3c-1-1.2-2-1.9-3-2c-0.9-0.2-1.9,0.2-2.7,0.9c-0.9,0.8-1.3,1.6-1.3,2.6
				s0.5,2,1.5,3.1l3,3.4L309.2,70.3z"/>
			<path class="st2" d="M303.5,50.7l1,1l-12.4,12.5l-1-1L303.5,50.7z"/>
			<path class="st2" d="M298.5,45.9l-11.4,13.5l-3.9-3.3c-1.6-1.4-2.6-3.1-2.7-5.1s0.5-3.9,1.9-5.6l1.5-1.7c1.5-1.7,3.2-2.7,5.2-2.9
				s3.8,0.4,5.4,1.8L298.5,45.9z M286.8,57.4l9.9-11.5l-2.8-2.4c-1.3-1.2-2.8-1.6-4.5-1.4c-1.6,0.2-3.1,1-4.3,2.4l-1.5,1.8
				c-1.2,1.4-1.8,2.9-1.7,4.6c0.1,1.6,0.8,3,2.1,4.2L286.8,57.4z"/>
			<path class="st2" d="M273.8,33l6.7,4.6l4.3-3l1.2,0.9l-15.5,10.7l-1.2-0.8l4.6-18.3l1.2,0.9L273.8,33z M279.3,38.5l-5.9-4
				l-2.6,9.8l0.1,0.1L279.3,38.5z"/>
			<path class="st2" d="M250.4,34.2l5.7-10.4c0.9-1.7,2.2-2.7,3.7-3c1.6-0.3,3.1,0,4.7,0.9s2.7,2.1,3.3,3.5c0.5,1.5,0.3,3-0.6,4.7
				l-5.7,10.4l-1.2-0.7l5.7-10.4c0.7-1.3,0.9-2.6,0.5-3.7s-1.2-2.1-2.5-2.7c-1.2-0.7-2.5-0.9-3.7-0.6s-2.2,1.1-2.9,2.4L251.7,35
				L250.4,34.2z"/>
			<path class="st2" d="M248.6,22.8l3.1-7.4l1.3,0.5l-6.8,16.3l-5.5-2.3c-1.7-0.7-3-1.7-3.6-2.8c-0.6-1.2-0.6-2.5,0-3.9
				c0.4-0.9,0.9-1.5,1.7-2s1.7-0.7,2.7-0.6c-0.9-0.7-1.4-1.4-1.6-2.2c-0.2-0.9-0.1-1.8,0.4-2.7L241,14c0.2-0.5,0.3-1,0.4-1.5
				c0.1-0.5,0-0.9-0.2-1.2l0.1-0.2l1.4,0.5c0.2,0.4,0.2,0.9,0.1,1.4c-0.1,0.5-0.2,1.1-0.5,1.5l-0.6,1.5c-0.4,1-0.4,1.9,0,2.8
				s1.2,1.5,2.3,2L248.6,22.8z M248.2,23.9l-4-1.7c-1.5-0.6-2.6-0.8-3.6-0.5c-0.9,0.3-1.6,0.9-2,1.9c-0.5,1.1-0.5,2,0,2.9
				s1.3,1.5,2.7,2.2l4.2,1.8L248.2,23.9z"/>
			<path class="st2" d="M212.1,20.9l3-11.6c0.5-1.9,1.4-3.2,2.8-3.9c1.4-0.7,3-0.9,4.8-0.4s3.2,1.3,4,2.6c0.9,1.2,1.1,2.9,0.6,4.7
				l-3,11.6l-1.4-0.4l3-11.5c0.4-1.5,0.2-2.7-0.5-3.7s-1.7-1.7-3.1-2c-1.4-0.4-2.6-0.2-3.7,0.3s-1.8,1.5-2.2,3l-3,11.5L212.1,20.9z"
				/>
			<path class="st2" d="M203.3,11.8l-6.1,6.7l-1.7-0.2l7.1-7.7l-4.7-9.7l1.7,0.2l4,8.4l6.2-7l1.7,0.2l-7.1,8l4.6,9.4l-1.7-0.2
				L203.3,11.8z"/>
			<path class="st2" d="M183.6,7.4l0.2-7.4h1.5l-0.4,17.6l-6.1-0.1c-1.9,0-3.3-0.5-4.3-1.5c-1-0.9-1.5-2.2-1.5-3.8s0.5-2.8,1.6-3.7
				s2.5-1.4,4.3-1.3L183.6,7.4z M183.6,8.5L179,8.4c-1.5,0-2.6,0.3-3.3,1.1c-0.8,0.7-1.1,1.6-1.2,2.8c0,1.2,0.3,2.1,1,2.9
				c0.7,0.8,1.8,1.2,3.3,1.2l4.7,0.1L183.6,8.5z"/>
			<path class="st2" d="M166.9,8.2l-0.8-7.9l1.5-0.2l1.6,17.5l-6,0.5c-1.9,0.2-3.3-0.1-4.4-0.9c-1.1-0.7-1.7-1.9-1.9-3.5
				c-0.1-0.9,0.1-1.8,0.5-2.6c0.5-0.8,1.2-1.4,2.1-1.9C158.4,9,157.6,8.6,157,8s-0.9-1.5-0.9-2.6l0-1.4c-0.1-0.5-0.2-1-0.3-1.5
				c-0.2-0.4-0.4-0.8-0.8-1V1.2l1.5-0.2c0.3,0.2,0.5,0.6,0.8,1.2c0.2,0.5,0.3,1.1,0.3,1.6l0.2,1.6c0.1,1.1,0.5,1.9,1.3,2.5
				c0.8,0.5,1.8,0.8,3,0.7L166.9,8.2z M167,9.4l-4.3,0.4c-1.6,0.2-2.7,0.5-3.4,1.3c-0.7,0.7-0.9,1.6-0.9,2.7c0.1,1.2,0.5,2,1.3,2.6
				c0.8,0.5,1.9,0.8,3.4,0.6l4.5-0.4L167,9.4z"/>
			<path class="st2" d="M137.9,12c-0.5-2.2-0.2-4.2,0.8-5.8c0.9-1.6,2.5-2.6,4.5-3s3.8-0.1,5.3,1.1s2.5,2.8,2.9,5l0.5,2.8
				c0.5,2.2,0.2,4.2-0.7,5.8s-2.4,2.6-4.4,3c-2.1,0.4-3.9,0.1-5.4-1.1s-2.5-2.8-3-5L137.9,12z M139.9,14.5c0.4,1.9,1.2,3.3,2.3,4.3
				c1.2,0.9,2.6,1.2,4.3,0.9s2.8-1.2,3.5-2.5s0.9-2.9,0.5-4.8L150,9.5c-0.4-1.9-1.2-3.3-2.3-4.3s-2.6-1.2-4.2-0.9
				c-1.7,0.3-2.9,1.2-3.6,2.5s-0.9,2.9-0.5,4.8L139.9,14.5z"/>
			<path class="st2" d="M130.5,6.3l5.3,16.8l-4.9,1.5c-2.1,0.6-4,0.5-5.7-0.5c-1.8-0.9-3-2.5-3.7-4.6l-0.7-2.2
				c-0.7-2.2-0.5-4.1,0.4-5.9s2.4-3,4.4-3.6L130.5,6.3z M134.1,22.4l-4.6-14.5L126,9c-1.6,0.5-2.9,1.5-3.6,3s-0.8,3.1-0.2,4.9
				l0.7,2.2c0.5,1.8,1.6,3,3,3.9s3,1,4.7,0.5L134.1,22.4z"/>
			<path class="st2" d="M108.6,33.3l-4.8-10.9c-0.8-1.8-0.9-3.3-0.2-4.7c0.7-1.4,1.9-2.5,3.7-3.3c1.7-0.8,3.3-0.9,4.7-0.4
				c1.5,0.5,2.6,1.6,3.3,3.3l4.8,10.9l-1.3,0.5l-4.7-10.9c-0.6-1.4-1.5-2.2-2.6-2.6c-1.2-0.4-2.4-0.3-3.7,0.2
				c-1.3,0.5-2.3,1.4-2.8,2.6c-0.5,1.1-0.5,2.3,0.2,3.7l4.7,10.9L108.6,33.3z"/>
			<path class="st2" d="M87.9,30.9L87.9,30.9c-0.8-1.6-0.9-3.2-0.5-4.6c0.5-1.4,1.5-2.6,3.1-3.5c1.7-0.9,3.4-1.2,5.2-0.5
				c1.8,0.6,3.2,1.9,4.3,3.9l1.4,2.5c1.1,1.9,1.5,3.9,1.2,5.6s-1.4,3.3-3.1,4.2c-1.6,0.9-3.2,1.2-4.7,0.9S92,38.2,91,36.7v-0.1
				l1.2-0.7c0.9,1.2,1.9,1.9,3,2.2s2.3,0.1,3.6-0.7c1.3-0.8,2.1-1.9,2.3-3.4c0.2-1.5-0.2-3-1-4.6l-1.4-2.5c-0.9-1.6-2.1-2.8-3.5-3.3
				s-2.8-0.5-4.1,0.3c-1.3,0.7-2.1,1.6-2.5,2.7c-0.3,1.1-0.2,2.3,0.4,3.7L87.9,30.9z"/>
			<path class="st2" d="M80.2,49.3l5-3.5l-9.4-13.4l1.2-0.9L86.3,45l5-3.5l0.7,1l-11.2,7.7L80.2,49.3z"/>
			<path class="st2" d="M60.9,43.9l12,12.8l-3.7,3.5c-1.6,1.5-3.3,2.2-5.4,2.1c-2-0.1-3.8-0.9-5.4-2.6L56.9,58
				c-1.6-1.6-2.3-3.5-2.3-5.5c0.1-2,0.9-3.7,2.4-5.2L60.9,43.9z M71.1,56.8l-10.4-11L58,48.3c-1.2,1.2-1.9,2.6-1.9,4.3
				c0.1,1.6,0.6,3.2,1.9,4.5l1.6,1.7c1.2,1.3,2.7,2.1,4.3,2.2c1.6,0.2,3.1-0.4,4.4-1.6L71.1,56.8z"/>
			<path class="st2" d="M47.5,69.8l5.6-6.3l-5.5-4.8L41.2,66l-0.9-0.9l7.4-8.4L61,68.3l-7.4,8.4l-0.9-0.9l6.4-7.3l-5-4.3l-5.6,6.3
				L47.5,69.8z"/>
			<path class="st2" d="M34.6,79.9c0.8,0.5,1.6,0.7,2.6,0.5c0.9-0.2,2.1-0.9,3.5-2.1c1.6-1.2,2.9-2.1,4.1-2.4
				c1.2-0.3,2.3-0.2,3.4,0.6c1.1,0.8,1.6,1.9,1.7,3.3c0,1.4-0.5,2.8-1.5,4.2c-1.1,1.5-2.3,2.3-3.8,2.6c-1.5,0.3-2.8,0-4-0.9v-0.1
				l0.8-1.1c0.9,0.7,2,0.9,3.1,0.7c1.1-0.2,2.1-0.9,3-2.1s1.2-2.2,1.2-3.3c-0.1-1-0.5-1.8-1.2-2.3s-1.6-0.7-2.5-0.4
				c-0.9,0.2-2.1,0.9-3.5,2.2c-1.5,1.2-2.9,2-4.1,2.3c-1.2,0.3-2.4,0.1-3.5-0.7c-1.2-0.9-1.7-1.9-1.7-3.3s0.5-2.9,1.6-4.3
				s2.3-2.4,3.8-2.9s2.9-0.3,4.3,0.7l0.1,0.1l-0.8,1.1c-1.1-0.8-2.3-1-3.3-0.5c-1.2,0.5-2.1,1.2-3,2.3c-0.9,1.2-1.2,2.2-1.2,3.3
				C33.3,78.6,33.7,79.3,34.6,79.9z"/>
			<path class="st2" d="M26.5,84.5l0.8-1.2l15,9.3l-0.8,1.2L26.5,84.5z"/>
			<path class="st2" d="M18.9,102.5c-0.3-0.6-0.5-1.5-0.4-2.6c0.1-1.2,0.5-2.4,1.2-3.9c0.9-1.8,2.3-3,4.2-3.5
				c1.9-0.5,3.7-0.2,5.7,0.8l2.9,1.5c1.9,1,3.3,2.4,3.9,4.1s0.5,3.5-0.4,5.3c-0.9,1.7-2,2.8-3.3,3.3s-2.7,0.5-4.1-0.1l-0.1-0.1
				l0.6-1.2c1.2,0.4,2.3,0.4,3.3,0c1-0.4,1.9-1.2,2.6-2.6c0.7-1.4,0.8-2.8,0.2-4.2c-0.5-1.4-1.6-2.5-3.3-3.3L29,94.6
				c-1.6-0.9-3.2-1.1-4.7-0.7c-1.6,0.4-2.6,1.3-3.4,2.8c-0.5,1-0.9,2-0.9,2.9c-0.1,0.9,0,1.5,0.2,2l4.1,2.1l2.2-4.2l1.1,0.5
				l-2.9,5.4L18.9,102.5z"/>
			<path class="st2" d="M9.6,119.7l0.5-1.3l17.8-3.9v-0.1L13.7,109l0.5-1.3l16.5,6.3l-0.5,1.3l-17.8,3.9v0.1l14.1,5.4L26,126
				L9.6,119.7z"/>
			<path class="st2" d="M13.1,138.1l2.3-8.2L8.3,128l-2.6,9.4l-1.2-0.3l3-10.8l17,4.6l-3,10.7l-1.2-0.3L23,132l-6.4-1.7l-2.3,8.2
				L13.1,138.1z"/>
			<path class="st2" d="M11.1,145l-7.8-1.3l0.2-1.4l17.4,2.9l-1,5.9c-0.3,1.9-0.9,3.3-1.9,4.1c-1,0.9-2.3,1.2-3.8,0.9
				c-0.9-0.2-1.7-0.5-2.3-1.2s-1-1.5-1.2-2.6c-0.5,1-1.1,1.7-1.9,2.1c-0.8,0.4-1.7,0.5-2.7,0.2l-1.6-0.3c-0.5-0.1-1-0.1-1.5-0.1
				c-0.5,0.1-0.9,0.2-1.2,0.5l-0.3-0.1l0.2-1.3c0.3-0.2,0.8-0.4,1.3-0.4s1.1,0,1.6,0.1l1.6,0.2c1.1,0.2,1.9,0,2.7-0.6
				c0.7-0.6,1.2-1.5,1.4-2.7L11.1,145z M12.3,145.2l-0.7,4.3c-0.2,1.5-0.2,2.8,0.4,3.6c0.5,0.9,1.3,1.3,2.4,1.5
				c1.2,0.2,2.1,0,2.8-0.6c0.8-0.6,1.2-1.6,1.5-3.1l0.8-4.5L12.3,145.2z"/>
			<path class="st2" d="M7.7,169.8l0.1-1.9L10,168l-0.1,1.9L7.7,169.8z"/>
		</g>
	</g>
	<g id="Capa_5" class="st0">
	</g>
	<g>
		<path d="M173.2,178.9c-0.5-7.4-1.2-16.9-7.1-15.9c-5.9,1-4.9,6.9-4.4,12.7c1,10.8,1,21.6,1,29.4c0,9.3,0,12.3,2.9,12.3
			c5.9,0.5,7.8-18.6,8.3-30.9c-5.6,0.7-8.1-0.7-8.1-3.2S168.1,179.7,173.2,178.9z"/>
		<path d="M234.3,181.6c-0.5-6.9-1.2-15.4-7.1-14.9c-4.4,0.4-4.3,5.8-3.8,11.4c1,10.2,0.3,20.4,0.3,27.8c0,8.8-0.9,11.5,2,11.5
			c5.7,0.5,7.8-17.1,8.3-28.7c-5.9,0.5-7.8-1-7.8-2.9C226.2,183.3,228.4,181.4,234.3,181.6z"/>
		<path d="M196.5,220.3c1.7,0.7,1.6-2.2,4.4-4.4c2.2-1.7,5.1-1.7,7.6-0.2s3.9,3.9,3.9,6.4c0,4.4-3.2,5.1-2.7,6.1
			c0.2,0.4,4.5-0.4,6.1-4.7c1.5-3.9-0.6-8.6-5.4-11.3c-4.4-2.5-8.6-1.7-11.3,0.5C196.5,214.9,195.5,219.9,196.5,220.3z"/>
		<path d="M204.3,275.6c-5.2,2-10.9,2.8-16.5,2.3c-0.3,0-0.5,0.2-0.5,0.4c0,0.1,0,0.2,0.1,0.3c2.6,4.8,6,11.4,8.8,11.3
			c2.9-0.1,6.9-7.3,9.2-13.3C205.7,275.9,205.7,274.9,204.3,275.6z"/>
		<path d="M268.1,209.8c0-8.3-4.4-11.8-7-13.3c-3.4-1.8-7.3-2.1-10.9-0.8c-0.1-4.9,0.3-9.8,1.2-14.6c0.4-2.5,0.7-5,0.6-7.5l1.3-2.8
			l4.3,5.9c1.5-4.9,5.7-34.6-2.7-44.6c13.6-15.4,10.8-34.6,7.8-38.5c-2.7,4.3-6.2,9.9-10.2,12.9c0-7.5-4.6-20.7-9.1-24.2
			c-1.3,10.5-5.6,15.3-8.3,18c1.1-10.8-4.3-16.7-6.5-17.7c-2.2,9.1-7,15.6-19.4,8.6s-62.9-47.9-94.6-2.7c-3.2-3.8-3.8-5.4-4.3-6.5
			c-2.7,4.8-2.7,14-2.7,14c-2.4-2.6-4.3-5.7-5.4-9.1c-3.8,6.5-10.2,15.6-1.1,31.7c-5.9,14-8.1,38.7-7.5,48.4c0.9-1.1,1.7-2,2.4-2.7
			c0.1,10,2.3,18.4,4.2,25.8c0.3,1,0.5,1.9,0.7,2.9l-0.5,0.1c-5.6,1.1-9.5,4.6-11.3,9.9c-3.2,9.5,1.3,23.3,7.4,30.2
			c3.2,3.6,6.8,6.2,10.5,7.5c1.9,4.4,6.9,6.7,11.5,5.1c1.7,6.8,5.5,13.7,11.4,20.4c8.3,9.6,19.2,17.1,26.8,21.7
			c10.7,6.5,21,9.6,31.5,9.6c7.2-0.1,14.2-1.4,20.9-4.1c15.7-6,26.5-25.5,35.1-41.1l1-1.8c2-3.5,3.7-7.1,5.1-10.9
			c4.5,2.5,10.3,0.9,12.8-3.6c1.7-3,1.6-6.7-0.3-9.7C266.1,222.1,268.1,216.2,268.1,209.8z M259,200.3c3.1,1.6,4.8,5,4.8,9.5
			c0.1,4.9-1.4,9.6-4.1,13.7c-0.8-0.5-1.7-0.8-2.6-1c-0.7-0.2-1.5,0.2-1.7,0.9s0.2,1.5,0.9,1.7h0.1c0.5,0.1,1,0.3,1.5,0.5
			c-1.4,1.5-3.1,2.6-4.9,3.3c0.6-5,0.3-9.8-0.5-15.1c-0.2-1.5-0.5-3-0.7-4.5c-0.5-3.1-1-6-1.3-9.1C253.2,198.9,256.3,199,259,200.3z
			 M115.6,243.7c-1.8,0-3.6-0.7-4.8-2c0.4,0,0.7,0.1,1.1,0.1c2,0.1,3.9-0.3,5.7-1.1c0.1,0.9,0.2,1.7,0.4,2.6
			C117.2,243.5,116.4,243.7,115.6,243.7z M241.5,248.5l-1,1.8c-5.1,9.3-11,19.9-18,28c-0.6-0.2-1.3,0.1-1.5,0.8
			c-0.1,0.3-0.1,0.6,0,0.8c-4,4.3-8.5,7.7-13.3,9.6c-1.5,0.6-3,1.1-4.5,1.5c-0.1-0.5-0.6-0.8-1.1-0.8c-0.6,0-1.2,0.5-1.2,1.2
			c0,0.1,0,0.2,0,0.2c-12.3,3.1-24,1.7-36.2-4.2c0.4-0.5,0.3-1.3-0.2-1.7c-0.2-0.2-0.5-0.3-0.7-0.3c-0.6,0-1.1,0.4-1.1,0.9
			c-1.2-0.6-2.4-1.3-3.7-2.1c-1.3-0.8-2.7-1.7-4.2-2.6c0.2,0.1,0.3,0.1,0.5,0.1c1.6,0,1.6-2.4,0-2.4c-1.2,0-1.5,1.5-0.8,2.2
			c-2.4-1.6-5-3.4-7.6-5.3c0.2,0.1,0.4,0.2,0.6,0.2c1.6,0,1.6-2.4,0-2.4c-1.2,0-1.5,1.5-0.8,2.1c-4.9-3.7-9.5-7.9-13.5-12.5
			c-4.4-5.1-7.6-10.3-9.4-15.4h0.1c1.6,0,1.6-2.4,0-2.4c-0.3,0-0.6,0.1-0.8,0.3c-0.9-3-1.3-6-1.2-9.1c0-1.2-0.9-2.2-2.1-2.3
			c-0.6,0-1.2,0.2-1.6,0.6c-1.6,1.5-3.8,2.3-6,2.2c-1.1,0-2.1-0.2-3.2-0.6c0-2.1,1-4.1,2.7-5.3c0.6-0.4,0.7-1.3,0.3-1.9
			c-0.4-0.6-1.3-0.7-1.9-0.3c-2.1,1.5-3.4,3.8-3.8,6.4c-2.5-1.4-4.7-3.2-6.5-5.3c-5.2-5.9-9.2-18-6.6-26c1.3-3.8,4-6.2,8-7
			c7.5-1.3,10.4,1.1,10.9,1.7c0.8,0.8,1.6,1.5,2.3,1.2c0.4-0.2,0.5-1.3-0.1-2.3c-0.1-0.2-2.4-4.6-8.9-5.1l0,0
			c-0.3-1.2-0.6-2.5-1-3.8c-1.7-6.6-3.6-14.1-4-22.7l1.3,2.7l4.3-5.9l3.8,6.5l3-6.7l3.8,6.5c0,0,2.4-26.1,12.9-36.6
			s23.9-18,39.3-12.9c14.1,4.7,47.8,30.9,71.4,22.9c4.7,11.2,9.4,25.5,7.2,37.5c-1.2,6.1-1.6,12.4-1.1,18.6c0,0.2,0,0.4,0,0.6
			c0.3,3.6,0.9,7,1.4,10.5c0.2,1.4,0.5,2.9,0.7,4.4c0.5,3,0.8,6.1,0.8,9.2c-0.2-0.2-0.5-0.3-0.8-0.3c-1.6,0-1.6,2.4,0,2.4
			c0.3,0,0.6-0.1,0.8-0.3C248.7,231.7,246.9,238.8,241.5,248.5z M254.9,238.3c-1.3,0-2.5-0.4-3.6-1c0,0-0.1,0-0.1-0.1
			c0.4-1.2,0.7-2.4,1-3.6c3.4-0.7,6.4-2.4,8.8-4.9c1.6,3.4,0.2,7.4-3.2,9C256.9,238.1,255.9,238.3,254.9,238.3L254.9,238.3z"/>
		<path d="M106.7,209.8c-2.4-1.7-5.3-1.7-7.9-0.8c-0.7,0.2-1.1,0.5-0.8,1.2c0.2,0.7,1.1,0.3,1.8,0.1c1.3-0.4,2.7,0,3.9,0.7
			c-2,1.2-3.3,3.6-3.9,6.8c-0.1,0.7-0.2,1.4,0.5,1.6c0.1,0,0.2,0,0.3,0c0.6,0,0.7-0.4,0.8-1.1c0.2-1.1,1.7-4.9,4.8-5.4h0.1
			c2,2,3.2,5.2,3.2,9.2c0,0.7,0.3,1.3,1.1,1.3s0.5-0.6,0.5-1.3C111.1,216.6,110,212.2,106.7,209.8z"/>
		<path d="M129.4,233.5c-1.6,0-1.6,2.4,0,2.4C131,235.9,130.9,233.5,129.4,233.5z"/>
		<path d="M139.7,240.3c1.6,0,1.6-2.4,0-2.4S138.1,240.3,139.7,240.3z"/>
		<path d="M140.3,246.8c1.6,0,1.6-2.4,0-2.4S138.7,246.8,140.3,246.8z"/>
		<path d="M131.2,245.3c-1.6,0-1.6,2.4,0,2.4C132.7,247.7,132.7,245.3,131.2,245.3z"/>
		<path d="M146.6,259.4c-1.6,0-1.6,2.4,0,2.4S148.2,259.4,146.6,259.4z"/>
		<path d="M137.8,257.7c-1.6,0-1.6,2.4,0,2.4S139.3,257.7,137.8,257.7z"/>
		<path d="M146.5,252.1c1.6,0,1.6-2.4,0-2.4S144.9,252.1,146.5,252.1z"/>
		<path d="M156.6,261.2c-1.6,0-1.6,2.4,0,2.4S158.2,261.2,156.6,261.2z"/>
		<path d="M151.8,264.4c-1.6,0-1.6,2.4,0,2.4S153.4,264.4,151.8,264.4z"/>
		<path d="M162.4,273.2c-1.6,0-1.6,2.4,0,2.4C164,275.7,164,273.2,162.4,273.2z"/>
		<path d="M169.4,282.1c-1.6,0-1.6,2.4,0,2.4S171,282.1,169.4,282.1z"/>
		<path d="M178.9,276.6c-1.6,0-1.6,2.4,0,2.4C180.4,279.1,180.4,276.6,178.9,276.6z"/>
		<path d="M178.9,286.3c-1.6,0-1.6,2.4,0,2.4C180.4,288.7,180.4,286.3,178.9,286.3z"/>
		<path d="M173.4,288c-1.6,0-1.6,2.4,0,2.4S175,288,173.4,288z"/>
		<path d="M140.5,266.3c-1.6,0-1.6,2.4,0,2.4S142.1,266.3,140.5,266.3z"/>
		<path d="M121.7,214.3c-1.6,0-1.6,2.4,0,2.4S123.3,214.3,121.7,214.3z"/>
		<path d="M129.8,222c1.6,0,1.6-2.4,0-2.4S128.2,222,129.8,222z"/>
		<path d="M138.8,227.4c1.6,0,1.6-2.4,0-2.4S137.3,227.4,138.8,227.4z"/>
		<path d="M122.8,229.2c-1.6,0-1.6,2.4,0,2.4S124.3,229.2,122.8,229.2z"/>
		<path d="M123.9,238.2c-1.6,0-1.6,2.4,0,2.4S125.5,238.2,123.9,238.2z"/>
		<path d="M128.2,253.2c-1.6,0-1.6,2.4,0,2.4C129.7,255.6,129.7,253.2,128.2,253.2z"/>
		<path d="M218.3,272.4c-1.6,0-1.6,2.4,0,2.4S219.9,272.4,218.3,272.4z"/>
		<path d="M210.3,272.4c-1.6,0-1.6,2.4,0,2.4C211.9,274.8,211.9,272.4,210.3,272.4z"/>
		<path d="M212.5,283.6c-1.6,0-1.6,2.4,0,2.4C214,286,214,283.6,212.5,283.6z"/>
		<path d="M224.7,270.3c-1.6,0-1.6,2.4,0,2.4C226.3,272.7,226.3,270.3,224.7,270.3z"/>
		<path d="M222.6,261.7c-1.6,0-1.6,2.4,0,2.4S224.2,261.7,222.6,261.7z"/>
		<path d="M232.8,259.6c-1.6,0-1.6,2.4,0,2.4C234.3,262,234.3,259.6,232.8,259.6z"/>
		<path d="M238.1,236.7c-1.6,0-1.6,2.4,0,2.4C239.7,239.1,239.6,236.7,238.1,236.7z"/>
		<path d="M238.1,243.6c-1.6,0-1.6,2.4,0,2.4C239.7,246,239.6,243.6,238.1,243.6z"/>
		<path d="M244,230.2c-1.6,0-1.6,2.4,0,2.4C245.5,232.6,245.5,230.2,244,230.2z"/>
		<path d="M185.6,288.6c-1.6,0-1.6,2.4,0,2.4C187.1,291,187.1,288.6,185.6,288.6z"/>
		<path d="M106,174.4c0,0.1,0-0.1,0-0.1l-0.1-0.2c0-0.1-0.1-0.3-0.1-0.4c0-0.1-0.1-0.3-0.1-0.4v-0.2V173c0,0,0-0.1,0-0.2
			s0-0.1,0-0.2s0-0.3,0-0.4c0-0.3,0-0.5,0-0.8s-0.3-0.6-0.6-0.6c-0.3,0-0.6,0.3-0.6,0.6c-0.1,1.2,0.1,2.4,0.5,3.5
			c0.2,0.3,0.5,0.4,0.8,0.2l0,0C106.2,175,106.2,174.6,106,174.4z"/>
		<path d="M112.3,175.7c0.3-0.2,0.4-0.5,0.2-0.8c0,0.1,0-0.1,0-0.1l-0.1-0.2c0-0.1-0.1-0.3-0.1-0.4c0-0.1-0.1-0.3-0.1-0.4v-0.2v-0.1
			c0,0,0-0.1,0-0.2s0-0.1,0-0.2s0-0.3,0-0.4c0-0.3,0-0.5,0-0.8s-0.3-0.6-0.6-0.6c-0.3,0-0.6,0.3-0.6,0.6c-0.1,1.2,0.1,2.4,0.5,3.5
			C111.7,175.8,112,175.9,112.3,175.7z"/>
		<path d="M118.2,176.3c0.3-0.2,0.4-0.5,0.2-0.8c0,0.1,0-0.1,0-0.1l-0.1-0.2c0-0.1-0.1-0.3-0.1-0.4c0-0.1-0.1-0.3-0.1-0.4v-0.2v-0.1
			c0,0,0-0.1,0-0.2c0,0,0-0.1,0-0.2c0-0.1,0-0.3,0-0.4c0-0.3,0-0.5,0-0.8s-0.3-0.6-0.6-0.6c-0.3,0-0.6,0.3-0.6,0.6
			c-0.1,1.2,0.1,2.4,0.5,3.5C117.6,176.3,117.9,176.4,118.2,176.3z"/>
		<path d="M107.1,182.3l-0.1-0.2c0-0.1-0.1-0.3-0.1-0.4c0-0.1-0.1-0.3-0.1-0.4v-0.2V181c0,0,0-0.1,0-0.2s0-0.1,0-0.2s0-0.3,0-0.4
			c0-0.3,0-0.5,0-0.8s-0.3-0.6-0.6-0.6c-0.3,0-0.6,0.3-0.6,0.6c-0.1,1.2,0.1,2.4,0.5,3.5c0.2,0.3,0.5,0.4,0.8,0.2l0,0
			C107.2,182.9,107.3,182.6,107.1,182.3C107.2,182.5,107.1,182.3,107.1,182.3z"/>
		<path d="M113,183c0,0.1,0-0.1,0-0.1l-0.1-0.2c0-0.1-0.1-0.3-0.1-0.4c0-0.1-0.1-0.3-0.1-0.4v-0.2v-0.1c0,0,0-0.1,0-0.2s0-0.1,0-0.2
			s0-0.3,0-0.4c0-0.3,0-0.5,0-0.8s-0.3-0.6-0.6-0.6c-0.3,0-0.6,0.3-0.6,0.6c-0.1,1.2,0.1,2.4,0.5,3.5c0.2,0.3,0.5,0.4,0.8,0.2l0,0
			C113.1,183.6,113.2,183.2,113,183z"/>
		<path d="M119,183.5c0,0.1,0-0.1,0-0.1l-0.1-0.2c0-0.1-0.1-0.3-0.1-0.4c0-0.1-0.1-0.3-0.1-0.4v-0.2v-0.1c0,0,0-0.1,0-0.2
			c0,0,0-0.1,0-0.2c0-0.1,0-0.3,0-0.4c0-0.3,0-0.5,0-0.8s-0.3-0.6-0.6-0.6c-0.3,0-0.6,0.3-0.6,0.6c-0.1,1.2,0.1,2.4,0.5,3.5
			c0.2,0.3,0.5,0.4,0.8,0.2l0,0C119.1,184.1,119.1,183.8,119,183.5z"/>
		<path d="M109.2,189.8l-0.1-0.2c0-0.1-0.1-0.3-0.1-0.4c0-0.1-0.1-0.3-0.1-0.4v-0.2v-0.1c0,0,0-0.1,0-0.2s0-0.1,0-0.2
			c0-0.1,0-0.3,0-0.4c0-0.3,0-0.5,0-0.8s-0.3-0.6-0.6-0.6c-0.3,0-0.6,0.3-0.6,0.6c-0.1,1.2,0.1,2.4,0.5,3.5c0.2,0.3,0.5,0.4,0.8,0.2
			l0,0C109.3,190.4,109.4,190.1,109.2,189.8C109.3,190.1,109.2,189.9,109.2,189.8z"/>
		<path d="M114.6,190.9l-0.1-0.2c0-0.1-0.1-0.3-0.1-0.4c0-0.1-0.1-0.3-0.1-0.4v-0.2v-0.1c0,0,0-0.1,0-0.2c0,0,0-0.1,0-0.2
			s0-0.3,0-0.4c0-0.3,0-0.5,0-0.8s-0.3-0.6-0.6-0.6c-0.3,0-0.6,0.3-0.6,0.6c-0.1,1.2,0.1,2.4,0.5,3.5c0.2,0.3,0.5,0.4,0.8,0.2l0,0
			C114.7,191.5,114.8,191.2,114.6,190.9C114.7,191.1,114.6,190.9,114.6,190.9z"/>
		<path d="M120.6,191.6c0,0.1,0-0.1,0-0.1l-0.1-0.2c0-0.1-0.1-0.3-0.1-0.4c0-0.1-0.1-0.3-0.1-0.4v-0.2v-0.1c0,0,0-0.1,0-0.2
			c0,0,0-0.1,0-0.2c0-0.1,0-0.3,0-0.4c0-0.3,0-0.5,0-0.8s-0.3-0.6-0.6-0.6c-0.3,0-0.6,0.3-0.6,0.6c-0.1,1.2,0.1,2.4,0.5,3.5
			c0.2,0.3,0.5,0.4,0.8,0.2l0,0C120.7,192.2,120.7,191.9,120.6,191.6z"/>
		<path d="M122,199.9c0.3-0.2,0.4-0.5,0.2-0.8c0,0.1,0-0.1,0-0.1l-0.1-0.2c0-0.1-0.1-0.3-0.1-0.4c0-0.1-0.1-0.3-0.1-0.4v-0.2v-0.1
			c0,0,0-0.1,0-0.2c0,0,0-0.1,0-0.2c0-0.1,0-0.3,0-0.4c0-0.3,0-0.5,0-0.8s-0.3-0.6-0.6-0.6c-0.3,0-0.6,0.3-0.6,0.6
			c-0.1,1.2,0.1,2.4,0.5,3.5C121.4,200,121.7,200.1,122,199.9z"/>
		<path d="M117.8,206.5l-0.1-0.2c0-0.1-0.1-0.3-0.1-0.4c0-0.1-0.1-0.3-0.1-0.4v-0.2v-0.1c0,0,0-0.1,0-0.2c0,0,0-0.1,0-0.2
			c0-0.1,0-0.3,0-0.4c0-0.3,0-0.5,0-0.8s-0.3-0.6-0.6-0.6c-0.3,0-0.6,0.3-0.6,0.6c-0.1,1.2,0.1,2.4,0.5,3.5c0.2,0.3,0.5,0.4,0.8,0.2
			l0,0C117.9,207.1,118,206.8,117.8,206.5C117.9,206.7,117.8,206.5,117.8,206.5z"/>
		<path d="M124.1,208c0.3-0.2,0.4-0.5,0.2-0.8c0,0.1,0-0.1,0-0.1l-0.1-0.2c0-0.1-0.1-0.3-0.1-0.4c0-0.1-0.1-0.3-0.1-0.4v-0.2v-0.1
			c0,0,0-0.1,0-0.2s0-0.1,0-0.2c0-0.1,0-0.3,0-0.4c0-0.3,0-0.5,0-0.8s-0.3-0.6-0.6-0.6c-0.3,0-0.6,0.3-0.6,0.6
			c-0.1,1.2,0.1,2.4,0.5,3.5C123.5,208,123.8,208.1,124.1,208z"/>
		<path d="M151.9,161.4c1.6-1.6,3.8-3.6,5.4-4c3.9-1,10.1,3.3,17.4,8.2c1.5,1,3,2,4.5,3c0.4,0.2,0.8,0.4,1.2,0.4
			c0.7,0,1.2-0.9,1.6-1.6c0.6-1,0.4-1.8-0.5-2.4c-1.5-1-3-2-4.4-2.9c-8.4-5.7-15.1-10.2-20.9-8.8c-2.9,0.7-4.6,3.5-6.5,7.1
			c-0.6,1.1-0.5,1.6,0,2.2S151.1,162.2,151.9,161.4z"/>
		<path d="M236.6,156.8c-5.1-1.3-11.2,2.8-18.3,7.5l-2.2,1.5c-1,0.7-0.8,1.6-0.2,2.6c0.4,0.6,0.7,1.3,1.3,1.3c0.4,0,0.8-0.1,1.2-0.4
			l2.3-1.5c5.7-3.8,11.6-7.7,14.8-6.9c0.6,0.2,2.4,0.4,3.5,2.2c0.6,1,1.6,2.5,2.2,2c0.7-0.7,0.5-2.7,0-3.8
			C240,159,238.8,157.3,236.6,156.8z"/>
		<path d="M232.8,238.5c-7.8,2.9-16.2,8.3-39.2,8.3c-14.3,0.1-28.2-4-40.2-11.8c0.8-0.7,1.7-1.3,2.6-1.8c12,5,29.6,9.3,44.6,8
			c8.6,1.1,29-2.7,35.5-6.5c1.6-1.1,3.8-3.2-0.5-2.7s-12.9,1.6-23.1-2.2c-2.9-1.1-3.8,2.2-9.7,1.6c-5.4-0.5-4.8-3.2-10.2-2.2
			c-24.7,3.2-35,0.5-41.9-2.7c-4.6-2.2-6.5,0.5-1.6,3.2c1.2,0.7,2.5,1.3,3.9,2c-2,0.5-3.9,1.6-5.4,3.1c-2.2,2.2-3.2,4.7-3.2,6.6
			c0,1.5,1,2,1.5,1c0.6-0.9,1.2-1.7,2-2.5c3.4,10.3,12.3,23,24.5,29.9c4.7,2.7,9.8,4.4,15.2,5c6.5,0.7,13.2-0.3,19.2-3
			c2.2-1,4.3-2.2,6.4-3.5c8.5-5.8,15.2-18.6,16.2-20.6s2.1-4.3,2.4-3.9c0.2,0.2,0,1.1-0.2,2.2c-0.5,2,0.9,2.3,1.5,0.5
			c0.2-0.7,1-2.9,1.5-4.9C235.3,237.8,235,237.8,232.8,238.5z M184.5,271.9c-8.6-1.6-17.2-7.5-19.4-10.2c0.5-2.2,6.4-5.3,18,2.5
			c0.1,0,0.1,0,0.2,0v-0.1c-0.4-1.9,0.2-2.4,1.7-2.4c6.5,0.5,10.2,3.8,11.8,8.1C197.4,271.3,192.4,273.4,184.5,271.9z M220.8,251.8
			c-31.7,8.6-58.1,1.6-66.1-10.8c21.5,10.8,44.6,13.4,66.7,5.9C221.3,246.9,221.3,247.4,220.8,251.8L220.8,251.8z"/>
		<path d="M172.2,273.9c-1.6,0-1.6,2.4,0,2.4S173.8,273.9,172.2,273.9z"/>
		<path d="M160.8,268.1c-1.6,0-1.6,2.4,0,2.4C162.4,270.5,162.4,268.1,160.8,268.1z"/>
		<path d="M154.2,270.4c-1.6,0-1.6,2.4,0,2.4S155.8,270.4,154.2,270.4z"/>
		<path d="M206,284.5c-1.6,0-1.6,2.4,0,2.4S207.6,284.5,206,284.5z"/>
		<path d="M214.2,277.9c-1.6,0-1.6,2.4,0,2.4C215.7,280.3,215.7,277.9,214.2,277.9z"/>
		<path d="M228.2,262.9c-1.6,0-1.6,2.4,0,2.4S229.8,262.9,228.2,262.9z"/>
		<path d="M217.1,267.1c-1.6,0-1.6,2.4,0,2.4C218.7,269.5,218.7,267.1,217.1,267.1z"/>
		<path d="M235.7,250.9c-1.6,0-1.6,2.4,0,2.4C237.3,253.4,237.3,250.9,235.7,250.9z"/>
		<path d="M243.6,237.4c-1.6,0-1.6,2.4,0,2.4C245.1,239.8,245.1,237.4,243.6,237.4z"/>
		<path d="M228.7,254.4c-1.6,0-1.6,2.4,0,2.4C230.3,256.9,230.3,254.4,228.7,254.4z"/>
		<path d="M184.2,281c-1.6,0-1.6,2.4,0,2.4S185.8,281,184.2,281z"/>
		<path d="M147.3,267.9c-1.6,0-1.6,2.4,0,2.4S148.9,267.9,147.3,267.9z"/>
		<path d="M151.9,257c1.6,0,1.6-2.4,0-2.4S150.4,257,151.9,257z"/>
		<path d="M142.4,252.6c-1.6,0-1.6,2.4,0,2.4S144,252.6,142.4,252.6z"/>
		<path d="M144.7,233c0.1-0.1,0.2-0.2,0.2-0.4c0.1-0.1,0.1-0.3,0.1-0.5c0-0.3-0.1-0.6-0.4-0.9l-0.2-0.2c-0.2-0.1-0.4-0.2-0.6-0.2
			h-0.3c-0.2,0.1-0.4,0.2-0.5,0.3l-0.2,0.2c-0.1,0.1-0.2,0.2-0.2,0.4c-0.1,0.3-0.1,0.6,0,0.9c0,0.1,0.1,0.3,0.2,0.4
			c0.1,0.1,0.2,0.1,0.2,0.2c0.2,0.1,0.4,0.2,0.6,0.2h0.3c0.2-0.1,0.4-0.2,0.5-0.3L144.7,233z"/>
		<path d="M130.2,229c1.6,0,1.6-2.4,0-2.4S128.7,229,130.2,229z"/>
		<path d="M174.3,280.3c-1.6,0-1.6,2.4,0,2.4C175.9,282.7,175.9,280.3,174.3,280.3z"/>
		<path d="M192.5,289.8c-1.6,0-1.6,2.4,0,2.4S194,289.8,192.5,289.8z"/>
		<path d="M136.2,232.7c1.6,0,1.6-2.4,0-2.4C134.6,230.3,134.6,232.7,136.2,232.7z"/>
		<path d="M131.9,241.9c1.6,0,1.6-2.4,0-2.4S130.3,241.9,131.9,241.9z"/>
		<path d="M135.1,250.3c-1.6,0-1.6,2.4,0,2.4S136.7,250.3,135.1,250.3z"/>
		<path d="M161.1,279.4c-1.6,0-1.6,2.4,0,2.4S162.7,279.4,161.1,279.4z"/>
		<path d="M166.6,268.9c-1.6,0-1.6,2.4,0,2.4S168.2,268.9,166.6,268.9z"/>
		<path d="M133.9,261.2c-1.6,0-1.6,2.4,0,2.4S135.5,261.2,133.9,261.2z"/>
		<path d="M124.1,222.4c-1.6,0-1.6,2.4,0,2.4S125.7,222.4,124.1,222.4z"/>
	</g>
</g>
</svg>
