<svg xmlns="http://www.w3.org/2000/svg" viewBox="0 0 365.838 365.844"><defs><style>.cls-1,.cls-10,.cls-11,.cls-12,.cls-13,.cls-14,.cls-15,.cls-16,.cls-17,.cls-18,.cls-19,.cls-2,.cls-20,.cls-21,.cls-22,.cls-23,.cls-3,.cls-4,.cls-5,.cls-6,.cls-7,.cls-8,.cls-9{isolation:isolate;fill:#fafafa;font-family:Roboto-Light, Roboto;font-weight:300;}.cls-1{font-size:24.502px;}.cls-2{font-size:24.51px;}.cls-3{font-size:24.509px;}.cls-4,.cls-9{font-size:24.51px;}.cls-5{font-size:24.52px;}.cls-6{font-size:24.518px;}.cls-7{font-size:24.51px;}.cls-8{font-size:24.51px;}.cls-9{letter-spacing:-0.02em;}.cls-10{font-size:24.506px;}.cls-11{font-size:24.52px;}.cls-12{font-size:24.503px;}.cls-13{font-size:24.506px;}.cls-14{font-size:24.51px;}.cls-15{font-size:24.517px;}.cls-16{font-size:24.505px;}.cls-17{font-size:24.521px;}.cls-18{font-size:24.5px;}.cls-19{font-size:24.513px;}.cls-20{font-size:24.499px;letter-spacing:-0.02em;}.cls-21{font-size:24.512px;}.cls-22{font-size:24.501px;}.cls-23{font-size:24.497px;}</style></defs><g id="Capa_1" data-name="Capa 1"><path d="M175,171.2c-.5-7-1.2-16-6.7-15.1-5.6.9-4.7,6.5-4.2,12,.9,10.2.9,20.4.9,27.8,0,8.8,0,11.6,2.8,11.6,5.6.5,7.4-17.6,7.9-29.2-5.3.7-7.6-.7-7.6-3C168,173,170.1,171.9,175,171.2Z" transform="translate(4.98 5.143)"/><path d="M232.6,173.7c-.5-6.6-1.2-14.6-6.7-14.1-4.2.3-4.1,5.5-3.6,10.8.9,9.6.3,19.3.3,26.3,0,8.3-.8,10.9,1.9,10.9,5.4.4,7.4-16.2,7.9-27.1-5.6.5-7.4-.9-7.4-2.8C225,175.3,227.1,173.5,232.6,173.7Z" transform="translate(4.98 5.143)"/><path d="M197,210.3c1.6.7,1.5-2.1,4.2-4.2a6.319,6.319,0,0,1,7.2-.2,7.258,7.258,0,0,1,3.7,6c0,4.2-3,4.9-2.5,5.8.2.4,4.3-.4,5.8-4.4,1.4-3.7-.6-8.1-5.1-10.7-4.2-2.3-8.1-1.6-10.7.5S196,209.9,197,210.3Z" transform="translate(4.98 5.143)"/><path d="M203.5,264.1a34.47,34.47,0,0,1-15.6,2.2c-.2,0-.5.1-.5.4a.367.367,0,0,0,.1.3c2.5,4.5,5.6,10.8,8.4,10.7,2.7-.1,6.5-6.9,8.7-12.5C204.8,264.4,204.8,263.4,203.5,264.1Z" transform="translate(4.98 5.143)"/><path d="M264.6,200.3c0-7.8-4.2-11.2-6.7-12.5a12.784,12.784,0,0,0-10.3-.8,71.374,71.374,0,0,1,1.1-13.8,41.655,41.655,0,0,0,.6-7.1l1.2-2.7,4.1,5.6c1.4-4.7,5.3-32.7-2.6-42.1,12.8-14.6,10.2-32.7,7.4-36.4-2.5,4.1-5.8,9.4-9.7,12.2,0-7.1-4.3-19.6-8.6-22.9-1.3,9.9-5.3,14.5-7.9,17,1-10.2-4.1-15.8-6.1-16.8-2,8.7-6.6,14.7-18.3,8.1s-59.5-45.2-89.4-2.5a22.175,22.175,0,0,1-4.1-6.1c-2.5,4.6-2.5,13.2-2.5,13.2a24.248,24.248,0,0,1-5.1-8.6c-3.6,6.1-9.7,14.7-1,30-5.6,13.2-7.6,36.6-7.1,45.8a29.6,29.6,0,0,1,2.3-2.5c.1,9.5,2.2,17.4,4,24.4.2.9.5,1.8.7,2.7l-.5.1a13.459,13.459,0,0,0-10.7,9.3c-3,9,1.2,22,7,28.6a26.556,26.556,0,0,0,9.9,7.1,8.878,8.878,0,0,0,8.1,5.3,8.423,8.423,0,0,0,2.7-.4c4.4,16.9,22.1,39.5,22.7,42.1.7,3.2,8.1,8.8,8.1,8.8a1.421,1.421,0,0,1-.2.6.608.608,0,0,0,0,.8,11.659,11.659,0,0,0,5.6,3.3c.3.1.5.3.4.6v.1a2.186,2.186,0,0,1-.3.5.619.619,0,0,0,.1.8h.1c2,1.2,7.7,2.4,9.4,2.7a.536.536,0,0,1,.5.5v.7a.472.472,0,0,0,.5.5c5.6,1.2,12.9-.2,15.2-.7.3-.1.6.1.7.5v.3c-.1.3-.2.5-.3.8a.54.54,0,0,0,.2.8.367.367,0,0,0,.3.1,21.548,21.548,0,0,0,9.6-2.3.574.574,0,0,1,.7.2l.9,1.5a.443.443,0,0,0,.7.2h0a20.342,20.342,0,0,0,4.7-3.9.605.605,0,0,1,.8-.1.52.52,0,0,1,.2.4,8.784,8.784,0,0,1-.1,2.8.56.56,0,0,0,.5.6h.3c3.5-1.5,6.5-4.9,7.9-6.7a.608.608,0,0,1,.8,0c.1.1.1.2.2.3.1.9.3,2.1.4,3.5a.56.56,0,0,0,.5.6.55.55,0,0,0,.5-.3c1.6-2.1,4.1-4.9,5.2-6.1a.605.605,0,0,1,.8-.1l.2.2a22.5,22.5,0,0,1,.8,2.4.569.569,0,0,0,.7.4c.1,0,.2-.1.3-.1,3.6-3.6,8.3-16.2,8.3-16.2l.8,1.6a11.189,11.189,0,0,0,.9-6,.61.61,0,0,1,.3-.7.663.663,0,0,1,.7.2.605.605,0,0,0,.8.1.52.52,0,0,0,.2-.4c.9-4,7.1-19.9,9.1-26.2s3.4-11.5,4.4-15.6a8.9,8.9,0,0,0,11.6-12.7A26.534,26.534,0,0,0,264.6,200.3Zm-8.6-8.9c2.9,1.6,4.5,4.7,4.5,8.9a22.765,22.765,0,0,1-3.9,12.9,12.234,12.234,0,0,0-2.4-1,1.3,1.3,0,1,0-.7,2.5h.1a7.838,7.838,0,0,1,1.4.5,11.381,11.381,0,0,1-4.7,3.1,53.181,53.181,0,0,0-.5-14.3c-.2-1.5-.4-2.9-.7-4.2-.5-2.9-.9-5.7-1.2-8.6a9.562,9.562,0,0,1,8.1.2ZM117,219.1a1.28,1.28,0,0,0-1.8-.3h0a9,9,0,0,0-3.6,6,24.785,24.785,0,0,1-6.2-5c-5-5.6-8.7-17-6.2-24.6a9.4,9.4,0,0,1,7.6-6.6c7.1-1.3,9.8,1,10.3,1.6.8.8,1.5,1.5,2.1,1.2.4-.2.5-1.3-.1-2.2-.1-.2-2.2-4.3-8.4-4.8h0c-.3-1.2-.6-2.3-.9-3.6-1.6-6.3-3.4-13.3-3.8-21.4l1.2,2.6,4.1-5.6,3.6,6.1,2.8-6.4,3.6,6.1s2.3-24.6,12.2-34.6c9.9-9.9,22.6-17,37.1-12.2,13.3,4.4,45.2,29.2,67.4,21.6,4.5,10.6,8.9,24.1,6.8,35.4a64.413,64.413,0,0,0-1,17.5v.5c.3,3.4.8,6.6,1.3,9.9.2,1.4.4,2.7.7,4.2a74.025,74.025,0,0,1,.8,8.1c-.4,3.5-6.7,11-10.9,14-1.6,14.4-6.4,13.4-6.4,12.8a70.991,70.991,0,0,1-15.4,19.5.758.758,0,0,0-.2.4c-1,10.6-6.6,16.1-13.1,18.3-1.3.3-2.6.6-3.8.8-8.1.3-19.4-4.7-20.4-15.4a.55.55,0,0,0-.3-.5c-12.2-5.5-23.7-21.2-26-25.8a.517.517,0,0,0-.7-.3c-3.6,1.4-6.3-6.2-3.1-11.6.2-.3,0-.6-.4-.8-12-7.1-13.7-15-16.9-21.5-.8-1.6-5.7.2-5.7,2,0,0,.1,15.5-.8,19.7v.3a7.545,7.545,0,0,1-5.4,1.8,10.474,10.474,0,0,1-3-.5,6.254,6.254,0,0,1,2.6-5A1.087,1.087,0,0,0,117,219.1Zm3.5,13.3a6.19,6.19,0,0,1-4.5-1.9c.3,0,.7.1,1,.1a12.2,12.2,0,0,0,5.3-1l.3,2.4a6.537,6.537,0,0,1-2.1.4Zm131.7-5.1a5.887,5.887,0,0,1-3.4-1,.1.1,0,0,1-.1-.1v-.1a23.41,23.41,0,0,0,.9-3.3,16.283,16.283,0,0,0,8.3-4.6,6.356,6.356,0,0,1-3,8.5,6.6,6.6,0,0,1-2.7.6Z" transform="translate(4.98 5.143)"/><path d="M112.1,200.4a7.986,7.986,0,0,0-7.5-.7c-.7.2-1,.4-.8,1.1s1,.3,1.7.1a4.569,4.569,0,0,1,3.7.7c-1.9,1.1-3.1,3.4-3.7,6.4-.1.7-.2,1.4.5,1.5h.3c.6,0,.6-.4.8-1,.2-1.1,1.6-4.6,4.5-5.1h.1c1.9,1.9,3,4.9,3,8.7,0,.7.3,1.3,1,1.3s.5-.5.5-1.3C116.2,206.8,115.2,202.7,112.1,200.4Z" transform="translate(4.98 5.143)"/><path d="M111.3,167.6a.54.54,0,0,0,.2-.8v-.1a.31.31,0,0,0-.1-.2c0-.1-.1-.2-.1-.4,0-.1-.1-.2-.1-.4v-1.8a.645.645,0,0,0-.6-.6.56.56,0,0,0-.5.6,7.6,7.6,0,0,0,.5,3.3A.505.505,0,0,0,111.3,167.6Z" transform="translate(4.98 5.143)"/><path d="M117.4,168.2a.54.54,0,0,0,.2-.8v-.1a.1.1,0,0,0-.1-.1,1.034,1.034,0,0,1-.1-.4c0-.1-.1-.2-.1-.4v-1.7a.56.56,0,0,0-.5-.6h-.1a.56.56,0,0,0-.5.6,7.6,7.6,0,0,0,.5,3.3A1.165,1.165,0,0,0,117.4,168.2Z" transform="translate(4.98 5.143)"/><path d="M123,168.7a.54.54,0,0,0,.2-.8v-.1a.31.31,0,0,0-.1-.2,1.034,1.034,0,0,1-.1-.4c0-.1-.1-.2-.1-.4V165a.536.536,0,0,0-.5-.5.634.634,0,0,0-.6.5,7.6,7.6,0,0,0,.5,3.3A.505.505,0,0,0,123,168.7Z" transform="translate(4.98 5.143)"/><path d="M112.5,174.4c0-.1,0-.1-.1-.2,0-.1-.1-.2-.1-.4,0-.1-.1-.2-.1-.4v-1.7a.56.56,0,0,0-.5-.6h0a.645.645,0,0,0-.6.6,7.6,7.6,0,0,0,.5,3.3.583.583,0,0,0,1-.6C112.5,174.6,112.5,174.4,112.5,174.4Z" transform="translate(4.98 5.143)"/><path d="M118.1,175v-.1a.31.31,0,0,0-.1-.2,1.034,1.034,0,0,1-.1-.4c0-.1-.1-.2-.1-.4v-1.8a.56.56,0,0,0-.6-.5.536.536,0,0,0-.5.5,7.6,7.6,0,0,0,.5,3.3.583.583,0,0,0,1-.6Z" transform="translate(4.98 5.143)"/><path d="M122.7,172.2a.634.634,0,0,0-.6.5,7.6,7.6,0,0,0,.5,3.3.583.583,0,1,0,1-.6v-.1a.31.31,0,0,0-.1-.2c0-.1-.1-.2-.1-.4,0-.1-.1-.2-.1-.4v-1.7c.1-.1-.2-.4-.6-.4Z" transform="translate(4.98 5.143)"/><path d="M114.5,181.5c0-.1,0-.1-.1-.2a1.034,1.034,0,0,1-.1-.4c0-.1-.1-.2-.1-.4v-1.7a.56.56,0,0,0-.5-.6h0a.569.569,0,0,0-.7.4v.1a7.6,7.6,0,0,0,.5,3.3.54.54,0,0,0,.8.2c.3,0,.3-.3.2-.7Z" transform="translate(4.98 5.143)"/><path d="M119.5,182.5a.31.31,0,0,0-.1-.2c0-.1-.1-.2-.1-.4s-.1-.2-.1-.4v-1.7a.56.56,0,0,0-.5-.6.645.645,0,0,0-.6.6,7.6,7.6,0,0,0,.5,3.3.583.583,0,0,0,1-.6C119.6,182.7,119.5,182.5,119.5,182.5Z" transform="translate(4.98 5.143)"/><path d="M124.2,183.7a.583.583,0,0,0,1-.6V183a.31.31,0,0,0-.1-.2c-.1-.1-.1-.2-.1-.4s-.1-.2-.1-.4v-1.7a.472.472,0,0,0-.5-.5.536.536,0,0,0-.5.5A6.421,6.421,0,0,0,124.2,183.7Z" transform="translate(4.98 5.143)"/><path d="M125.7,190.8a.583.583,0,0,0,1-.6v-.1a.31.31,0,0,0-.1-.2,1.034,1.034,0,0,1-.1-.4c0-.1-.1-.2-.1-.4v-1.8a.56.56,0,0,0-.5-.6h-.1a.56.56,0,0,0-.5.6A7.872,7.872,0,0,0,125.7,190.8Z" transform="translate(4.98 5.143)"/><path d="M122.4,198.1a.54.54,0,0,0,.2-.8v-.1l-.1-.2c0-.1-.1-.2-.1-.4,0-.1-.1-.2-.1-.4v-1.8a.552.552,0,0,0-1.1-.1h0a6.368,6.368,0,0,0,.5,3.3c.1.6.4.7.7.5Z" transform="translate(4.98 5.143)"/><path d="M128.5,198.6a.54.54,0,0,0,.2-.8v-.1a.31.31,0,0,0-.1-.2c0-.1-.1-.2-.1-.4,0-.1-.1-.2-.1-.4v-1.8a.56.56,0,0,0-.5-.6h0a.645.645,0,0,0-.6.6,7.6,7.6,0,0,0,.5,3.3C128,198.6,128.3,198.7,128.5,198.6Z" transform="translate(4.98 5.143)"/><path d="M154.8,154.6c1.5-1.5,3.6-3.4,5.1-3.8,3.7-.9,9.6,3.1,16.4,7.7,1.4.9,2.8,1.9,4.3,2.9a2.016,2.016,0,0,0,1.1.3c.7,0,1.1-.9,1.5-1.5a1.558,1.558,0,0,0-.5-2.3c-1.4-.9-2.8-1.9-4.1-2.8-8-5.4-14.3-9.7-19.7-8.3-2.7.7-4.4,3.3-6.1,6.7-.5,1.1-.5,1.5,0,2S154,155.4,154.8,154.6Z" transform="translate(4.98 5.143)"/><path d="M216.6,162.5a2.016,2.016,0,0,0,1.1-.3l2.1-1.4c5.4-3.6,11-7.3,14-6.5a4.7,4.7,0,0,1,3.3,2.1c.5,1,1.5,2.4,2.1,1.9.7-.7.5-2.6,0-3.6-1.2-2.2-2.3-3.8-4.4-4.4-4.8-1.2-10.6,2.6-17.3,7.1l-2.1,1.4c-.9.6-.8,1.5-.2,2.5C215.7,161.8,215.9,162.5,216.6,162.5Z" transform="translate(4.98 5.143)"/><path d="M147.6,230.4c0,1.4.9,1.9,1.4.9a10.1,10.1,0,0,1,1.9-2.3c3.3,9.7,11.6,21.8,23.2,28.3a40.329,40.329,0,0,0,14.3,4.8,34.127,34.127,0,0,0,18.1-2.8,43.574,43.574,0,0,0,6-3.3c8.1-5.5,14.4-17.6,15.3-19.5s2-4,2.3-3.7c.2.2,0,1.1-.2,2.1-.5,1.9.8,2.1,1.4.5.2-.7.9-2.8,1.4-4.6,1-3.9.7-3.9-1.4-3.3-7.4,2.8-15.3,7.9-37.1,7.9a69.116,69.116,0,0,1-38-11.1,20.709,20.709,0,0,1,2.4-1.7c11.3,4.7,28,8.8,42.2,7.5,8.1,1,27.4-2.5,33.5-6.1,1.5-1,3.6-3.1-.5-2.5a44.761,44.761,0,0,1-21.8-2c-2.8-1-3.6,2-9.2,1.5-5.1-.5-4.6-3-9.7-2-23.4,3.1-33,.5-39.6-2.5-4.4-2-6.1.5-1.5,3.1,1.1.6,2.4,1.2,3.7,1.9a11.337,11.337,0,0,0-5.1,2.9A8.831,8.831,0,0,0,147.6,230.4Zm38,28.6c-8.1-1.5-16.3-7.1-18.3-9.7.5-2,6-5,17,2.4h.2v-.1c-.4-1.8.1-2.2,1.6-2.2,6.1.5,9.7,3.6,11.2,7.6.5,1.5-4.2,3.4-11.7,2Zm34.8-23.6s0,.5-.5,4.6c-30,8.1-54.9,1.5-62.5-10.2,20.3,10.2,42.2,12.7,63,5.6Z" transform="translate(4.98 5.143)"/></g><g id="Capa_2" data-name="Capa 2"><text class="cls-1" transform="translate(6.622 188.147) rotate(85.812)">R</text><text class="cls-2" transform="matrix(0.174, 0.985, -0.985, 0.174, 8.008, 205.859)">U</text><text class="cls-3" transform="translate(11.332 223.866) rotate(74.157)">B</text><text class="cls-4" transform="translate(16.124 240.308) rotate(68.733)">É</text><text class="cls-2" transform="translate(22.008 255.352) rotate(62.889)">N</text><text class="cls-5" transform="translate(35.106 279.177) rotate(54.356)">R</text><text class="cls-6" transform="translate(45.465 293.219) rotate(50.15)">I</text><text class="cls-2" transform="translate(50.783 299.756) rotate(45.897)">D</text><text class="cls-4" transform="translate(63.381 312.59) rotate(40.206)">A</text><text class="cls-2" transform="translate(76.622 323.681) rotate(34.483)">U</text><text class="cls-7" transform="translate(91.801 333.952) rotate(28.615)">R</text><text class="cls-2" transform="translate(107.426 342.345) rotate(22.867)">A</text><text class="cls-7" transform="matrix(0.971, 0.239, -0.239, 0.971, 137.747, 353.282)">·</text><text class="cls-2" transform="translate(160.252 357.814) rotate(4.855)">P</text><text class="cls-4" transform="translate(177.414 359.204) rotate(-0.929)">R</text><text class="cls-2" transform="translate(195.146 358.868) rotate(-6.612)">O</text><text class="cls-2" transform="matrix(0.976, -0.219, 0.219, 0.976, 213.834, 356.568)">D</text><text class="cls-2" transform="translate(231.653 352.444) rotate(-18.663)">U</text><text class="cls-8" transform="matrix(0.909, -0.417, 0.417, 0.909, 248.982, 346.467)">C</text><text class="cls-9" transform="translate(265.047 338.969) rotate(-30.202)">T</text><text class="cls-10" transform="translate(285.332 326.475) rotate(-38.177)">D</text><text class="cls-7" transform="matrix(0.723, -0.691, 0.691, 0.723, 299.551, 315.105)">E</text><text class="cls-4" transform="translate(311.083 303.964) rotate(-48.983)">S</text><text class="cls-11" transform="translate(321.675 291.475) rotate(-53.004)">I</text><text class="cls-12" transform="matrix(0.539, -0.842, 0.842, 0.539, 326.865, 284.794)">G</text><text class="cls-2" transform="translate(337.04 268.691) rotate(-63.695)">N</text><text class="cls-7" transform="translate(345.549 251.024) rotate(-69.542)">E</text><text class="cls-13" transform="matrix(0.258, -0.966, 0.966, 0.258, 351.108, 235.934)">R</text><text class="cls-8" transform="matrix(0.102, -0.995, 0.995, 0.102, 357.805, 204.143)">·</text><text class="cls-4" transform="translate(359.205 181.278) rotate(-93.015)">R</text><text class="cls-7" transform="translate(358.176 163.544) rotate(-98.857)">U</text><text class="cls-4" transform="translate(355.22 145.474) rotate(-104.663)">B</text><text class="cls-2" transform="matrix(-0.344, -0.939, 0.939, -0.344, 350.761, 128.933)">É</text><text class="cls-14" transform="translate(345.188 113.774) rotate(-115.976)">N</text><text class="cls-4" transform="translate(332.58 89.696) rotate(-124.494)">R</text><text class="cls-15" transform="translate(322.502 75.441) rotate(-128.669)">I</text><text class="cls-16" transform="matrix(-0.681, -0.732, 0.732, -0.681, 317.314, 68.794)">D</text><text class="cls-17" transform="matrix(-0.751, -0.661, 0.661, -0.751, 304.98, 55.713)">A</text><text class="cls-2" transform="translate(291.956 44.35) rotate(-144.362)">U</text><text class="cls-7" transform="matrix(-0.868, -0.497, 0.497, -0.868, 277, 33.784)">R</text><text class="cls-18" transform="matrix(-0.913, -0.407, 0.407, -0.913, 261.545, 25.073)">A</text><text class="cls-19" transform="translate(231.461 13.521) rotate(-164.991)">·</text><text class="cls-7" transform="translate(209.054 8.529) rotate(-173.986)">P</text><text class="cls-4" transform="translate(191.974 6.893) rotate(-179.071)">R</text><text class="cls-7" transform="translate(174.163 6.779) rotate(174.54)">O</text><text class="cls-2" transform="translate(155.44 8.703) rotate(168.503)">D</text><text class="cls-7" transform="translate(137.544 12.458) rotate(162.506)">U</text><text class="cls-2" transform="translate(120.099 18.084) rotate(156.536)">C</text><text class="cls-20" transform="matrix(-0.874, 0.485, -0.485, -0.874, 103.893, 25.249)">T</text><text class="cls-11" transform="translate(83.341 37.336) rotate(143.004)">D</text><text class="cls-21" transform="matrix(-0.737, 0.676, -0.676, -0.737, 68.907, 48.414)">E</text><text class="cls-22" transform="matrix(-0.671, 0.741, -0.741, -0.671, 57.152, 59.319)">S</text><text class="cls-4" transform="translate(46.302 71.602) rotate(128.162)">I</text><text class="cls-4" transform="translate(40.985 78.169) rotate(123.768)">G</text><text class="cls-2" transform="translate(30.489 94.061) rotate(117.47)">N</text><text class="cls-7" transform="translate(21.624 111.538) rotate(111.63)">E</text><text class="cls-7" transform="translate(15.752 126.523) rotate(106.094)">R</text><text class="cls-23" transform="translate(8.415 158.158) rotate(97.011)">·</text></g></svg>