<?xml version="1.0" encoding="utf-8"?>
<!-- Generator: Adobe Illustrator 23.0.6, SVG Export Plug-In . SVG Version: 6.00 Build 0)  -->
<svg version="1.1" id="Capa_1" xmlns="http://www.w3.org/2000/svg" xmlns:xlink="http://www.w3.org/1999/xlink" x="0px" y="0px"
	 viewBox="0 0 356 356" style="enable-background:new 0 0 356 356;" xml:space="preserve">
<style type="text/css">
	.st0{display:none;}
	.st1{display:inline;}
	.st2{fill:#FAFAFA;}
</style>
<g>
	<g>
		<g id="Capa_4" class="st0">
			<g id="R7TSMy.tif" class="st1">
			</g>
		</g>
		<g id="XMLID_1_">
			<g>
				<path class="st2" d="M8.1,186.4l-8,0.6L0,185.5l17.6-1.3l0.5,6c0.2,1.9-0.2,3.3-0.9,4.4c-0.8,1.1-1.9,1.6-3.5,1.8
					c-0.9,0.1-1.8-0.2-2.6-0.6c-0.8-0.5-1.4-1.2-1.8-2.2c-0.2,1.1-0.6,1.9-1.3,2.5S6.4,197,5.4,197l-1.6,0.2c-0.5,0.1-1,0.2-1.5,0.3
					c-0.4,0.2-0.8,0.4-1,0.7H0.9l-0.1-1.5c0.2-0.3,0.6-0.5,1.2-0.7s1.1-0.2,1.6-0.3l1.6-0.2c1.1-0.1,1.9-0.5,2.5-1.2
					c0.5-0.8,0.8-1.7,0.7-3L8.1,186.4z M9.3,186.2l0.3,4.3c0.2,1.5,0.5,2.7,1.2,3.4s1.6,1,2.6,0.9c1.2-0.1,2-0.5,2.6-1.3
					c0.5-0.8,0.8-1.9,0.7-3.4l-0.3-4.5L9.3,186.2z"/>
				<path class="st2" d="M21.4,213l-11.8,2.2c-1.9,0.3-3.4,0-4.7-0.9c-1.2-0.9-2-2.4-2.3-4.3s-0.1-3.4,0.7-4.7s2.2-2.2,4-2.5
					l11.8-2.2l0.2,1.4l-11.8,2.2c-1.5,0.2-2.6,0.9-3.2,1.9s-0.9,2.2-0.6,3.6c0.2,1.4,0.9,2.6,1.9,3.3c0.9,0.8,2.2,1,3.7,0.7
					l11.8-2.2L21.4,213z"/>
				<path class="st2" d="M5.5,222.5l16.9-4.9l1.5,5c0.5,1.8,0.5,3.3,0.1,4.4s-1.4,2-3,2.5c-0.9,0.2-1.7,0.2-2.5-0.1
					s-1.4-0.9-1.9-1.6c0.1,1.1-0.2,2.1-0.7,2.9c-0.6,0.9-1.4,1.5-2.4,1.8c-1.5,0.5-2.8,0.3-4-0.5c-1.1-0.8-1.9-1.9-2.3-3.6
					L5.5,222.5z M14.1,221.5l-7,2l1.3,4.5c0.4,1.2,0.9,2.2,1.8,2.7s1.8,0.6,2.9,0.3c1-0.3,1.8-0.9,2.3-1.7c0.5-0.9,0.5-1.9,0.2-3.1
					L14.1,221.5z M15.2,221.1l1.2,3.9c0.4,1.2,0.9,2.1,1.6,2.6s1.6,0.6,2.6,0.3c1.1-0.3,1.8-0.9,2.1-1.8c0.3-0.9,0.3-2-0.1-3.3
					l-1-3.6L15.2,221.1z"/>
				<path class="st2" d="M22.4,245.3l-3.1-7.9l-6.8,2.7l3.6,9.1l-1.2,0.5l-4.1-10.4l16.4-6.5l4.1,10.3l-1.2,0.5l-3.6-9l-6.1,2.5
					l3.1,7.9L22.4,245.3z M33.8,237.4l0.6,1.6l-0.1,0.1l-4-1.6l-0.5-1.2L33.8,237.4z"/>
				<path class="st2" d="M23.1,265.9l-0.7-1.2l8.9-15.9l-0.1-0.1l-13.4,7l-0.7-1.3l15.7-8.1l0.7,1.3l-8.8,15.9l0.1,0.1l13.4-7
					l0.7,1.2L23.1,265.9z"/>
				<path class="st2" d="M38.1,274.7l-6.4,4.7l-0.9-1.2L45,267.8l3.5,4.8c1.1,1.5,1.6,2.9,1.6,4.3s-0.8,2.4-2,3.3
					c-0.8,0.5-1.6,0.9-2.5,0.9s-1.8-0.3-2.6-0.9c0.4,1,0.5,1.9,0.2,2.8c-0.3,0.8-0.9,1.5-1.7,2.2l-1.3,1c-0.5,0.3-0.8,0.7-1.1,1
					s-0.5,0.8-0.5,1.2l-0.2,0.2l-0.9-1.2c0.1-0.4,0.2-0.9,0.6-1.2c0.4-0.4,0.8-0.8,1.2-1.1l1.3-0.9c0.9-0.6,1.3-1.4,1.5-2.3
					c0.1-0.9-0.2-1.9-1-2.9L38.1,274.7z M39.1,273.9l2.6,3.5c0.9,1.3,1.9,2,2.9,2.2c0.9,0.2,1.9,0,2.7-0.6c0.9-0.7,1.5-1.5,1.6-2.5
					c0.1-0.9-0.3-2-1.2-3.3l-2.7-3.6L39.1,273.9z"/>
				<path class="st2" d="M43.1,294l-0.9-1.1l13.4-11.5l0.9,1.1L43.1,294z"/>
				<path class="st2" d="M47.7,299.2l12.5-12.4l3.7,3.6c1.6,1.5,2.3,3.3,2.3,5.3s-0.9,3.8-2.5,5.4l-1.6,1.6
					c-1.6,1.6-3.4,2.4-5.4,2.4s-3.8-0.8-5.3-2.2L47.7,299.2z M60.4,288.7l-10.8,10.7l2.6,2.6c1.2,1.2,2.6,1.9,4.3,1.8
					c1.6-0.1,3.2-0.8,4.5-2.1l1.6-1.6c1.3-1.3,2-2.8,2.1-4.4s-0.5-3.1-1.7-4.3L60.4,288.7z"/>
				<path class="st2" d="M71.2,314.1L65,309l-4.5,2.6l-1.2-0.9l16.4-9.3l1.1,0.9L70.7,320l-1.2-0.9L71.2,314.1z M66.2,308.2l5.5,4.5
					l3.3-9.6l-0.1-0.1L66.2,308.2z"/>
				<path class="st2" d="M94.5,314.9l-6.7,9.9c-1.1,1.6-2.4,2.5-3.9,2.7c-1.6,0.2-3.1-0.2-4.7-1.3c-1.6-1-2.6-2.3-3-3.8
					s-0.1-3,1-4.6l6.7-9.9l1.2,0.8l-6.7,9.9c-0.9,1.2-1.1,2.5-0.9,3.6c0.3,1.2,1,2.2,2.2,2.9c1.2,0.8,2.4,1.2,3.7,0.9
					c1.2-0.2,2.3-0.9,3.1-2.2l6.7-9.9L94.5,314.9z"/>
				<path class="st2" d="M95.4,326.5l-3.7,7l-1.2-0.7l8.2-15.6l5.3,2.8c1.7,0.9,2.8,1.9,3.3,3.1s0.4,2.5-0.3,3.9
					c-0.5,0.9-1.1,1.5-1.9,1.9c-0.9,0.4-1.8,0.5-2.8,0.4c0.9,0.8,1.3,1.5,1.4,2.4s-0.1,1.8-0.6,2.7l-0.8,1.5
					c-0.2,0.5-0.5,0.9-0.5,1.4c-0.1,0.5-0.1,0.9,0.1,1.2l-0.2,0.2l-1.3-0.7c-0.2-0.4-0.2-0.9,0-1.4s0.3-1,0.6-1.5l0.8-1.4
					c0.5-0.9,0.6-1.9,0.2-2.8c-0.3-0.9-1-1.6-2.2-2.2L95.4,326.5z M95.9,325.4l3.9,2c1.4,0.8,2.6,1,3.6,0.8c0.9-0.2,1.7-0.9,2.2-1.8
					c0.5-1,0.6-2,0.3-2.9c-0.4-0.9-1.2-1.7-2.5-2.4l-4-2.1L95.9,325.4z"/>
				<path class="st2" d="M117.7,340.1l-7.5-3l-3.5,3.9l-1.4-0.5l12.8-13.9l1.2,0.5l-0.4,18.8l-1.4-0.5L117.7,340.1z M111.2,336.1
					l6.6,2.6l0.3-10.1H118L111.2,336.1z"/>
				<path class="st2" d="M147.1,335.4l-2.8,11.6c-0.5,1.9-1.4,3.2-2.7,3.9c-1.4,0.7-3,0.9-4.8,0.4s-3.2-1.3-4-2.6s-1.1-2.8-0.7-4.6
					l2.8-11.6l1.4,0.3l-2.8,11.6c-0.4,1.5-0.2,2.7,0.5,3.7s1.7,1.7,3.1,2s2.6,0.2,3.7-0.4c1.1-0.5,1.8-1.6,2.2-3.1l2.8-11.6
					L147.1,335.4z"/>
				<path class="st2" d="M156.1,344.4l6-6.8l1.7,0.2l-7,7.8l4.8,9.7l-1.7-0.2l-4.1-8.4l-6.1,7l-1.7-0.2l7.2-8l-4.7-9.4l1.7,0.2
					L156.1,344.4z"/>
				<path class="st2" d="M175.8,348.6l0.2,7.4h-1.5l-0.3-17.6l6.1-0.1c1.9,0,3.3,0.4,4.3,1.3s1.6,2.2,1.6,3.7s-0.5,2.8-1.5,3.8
					c-1,0.9-2.4,1.5-4.3,1.5L175.8,348.6z M175.7,347.4l4.7-0.1c1.5,0,2.6-0.4,3.3-1.2s1.1-1.7,1.1-2.8c0-1.2-0.4-2.1-1.2-2.8
					c-0.8-0.7-1.9-1.1-3.3-1.1l-4.7,0.1L175.7,347.4z"/>
				<path class="st2" d="M192.5,347.5l0.9,7.9l-1.4,0.2l-1.9-17.5l6-0.6c1.9-0.2,3.3,0.1,4.4,0.8c1.1,0.7,1.7,1.9,1.9,3.4
					c0.1,0.9-0.1,1.8-0.5,2.6c-0.5,0.8-1.2,1.4-2.1,1.9c1.1,0.2,1.9,0.5,2.5,1.2c0.5,0.7,0.9,1.5,1,2.6l0.2,1.6
					c0.1,0.5,0.2,1,0.4,1.5c0.2,0.4,0.4,0.8,0.8,1v0.3l-1.5,0.2c-0.3-0.2-0.5-0.6-0.8-1.2c-0.2-0.5-0.3-1-0.4-1.6l-0.2-1.6
					c-0.1-1.1-0.5-1.9-1.3-2.4s-1.8-0.8-3-0.6L192.5,347.5z M192.3,346.2l4.3-0.5c1.6-0.2,2.7-0.6,3.3-1.3c0.7-0.7,0.9-1.6,0.9-2.7
					c-0.2-1.2-0.6-2-1.4-2.6c-0.8-0.5-1.9-0.8-3.4-0.6l-4.5,0.5L192.3,346.2z"/>
				<path class="st2" d="M221.5,343.3c0.5,2.2,0.2,4.2-0.7,5.8c-0.9,1.6-2.4,2.7-4.5,3.1c-2,0.5-3.8,0.1-5.3-1s-2.5-2.8-3-5
					l-0.6-2.8c-0.5-2.2-0.2-4.1,0.6-5.8c0.9-1.6,2.4-2.7,4.4-3.1c2-0.5,3.9-0.1,5.4,1c1.6,1.1,2.5,2.8,3,5L221.5,343.3z
					 M219.4,340.8c-0.4-1.9-1.2-3.3-2.4-4.2c-1.2-0.9-2.6-1.2-4.3-0.9c-1.6,0.4-2.8,1.2-3.5,2.6s-0.8,2.9-0.4,4.8l0.6,2.9
					c0.4,1.9,1.2,3.3,2.3,4.3c1.2,1,2.6,1.2,4.2,0.9c1.7-0.4,2.9-1.2,3.6-2.6c0.7-1.3,0.9-2.9,0.5-4.8L219.4,340.8z"/>
				<path class="st2" d="M228.8,348.9l-5.5-16.7l4.9-1.6c2-0.7,4-0.5,5.7,0.4c1.8,0.9,3,2.5,3.7,4.6l0.7,2.2
					c0.7,2.2,0.6,4.1-0.3,5.9c-0.9,1.8-2.3,3-4.4,3.7L228.8,348.9z M225.1,332.9l4.7,14.4l3.5-1.2c1.6-0.5,2.9-1.5,3.5-3.1
					c0.7-1.5,0.8-3.2,0.2-4.9l-0.7-2.2c-0.5-1.8-1.6-3-3-3.8c-1.5-0.8-3-0.9-4.7-0.4L225.1,332.9z"/>
				<path class="st2" d="M250.4,321.6l4.9,10.9c0.8,1.8,0.9,3.3,0.2,4.7c-0.6,1.4-1.9,2.5-3.6,3.3c-1.7,0.8-3.3,0.9-4.7,0.5
					s-2.6-1.5-3.4-3.3l-4.9-10.9l1.3-0.6l4.9,10.9c0.6,1.4,1.5,2.2,2.6,2.6s2.4,0.3,3.7-0.3c1.3-0.6,2.3-1.5,2.7-2.6
					c0.5-1.1,0.5-2.4-0.2-3.7l-4.9-10.9L250.4,321.6z"/>
				<path class="st2" d="M271.3,323.8L271.3,323.8c0.9,1.6,1,3.2,0.5,4.6s-1.5,2.6-3.1,3.6c-1.7,1-3.4,1.2-5.2,0.5
					c-1.8-0.6-3.2-1.9-4.3-3.9l-1.5-2.5c-1.2-1.9-1.6-3.8-1.2-5.6s1.3-3.3,3-4.3c1.6-0.9,3.2-1.2,4.6-0.9c1.4,0.3,2.7,1.2,3.7,2.7
					v0.1l-1.2,0.7c-0.9-1.2-1.9-1.9-3-2.2c-1.1-0.2-2.3,0-3.6,0.7c-1.3,0.8-2.1,1.9-2.3,3.4s0.2,3,1.1,4.6l1.5,2.5
					c0.9,1.6,2.1,2.7,3.6,3.3s2.8,0.5,4.1-0.3c1.3-0.8,2.1-1.6,2.4-2.7s0.2-2.3-0.4-3.7L271.3,323.8z"/>
				<path class="st2" d="M278.7,305.3l-5,3.6l9.6,13.3l-1.2,0.9l-9.6-13.3l-5,3.6l-0.7-1l11-7.9L278.7,305.3z"/>
				<path class="st2" d="M298,310.5l-12.2-12.7l3.7-3.6c1.6-1.5,3.3-2.2,5.4-2.2c2,0.1,3.8,0.9,5.4,2.6l1.6,1.6
					c1.6,1.6,2.3,3.5,2.3,5.4c0,2-0.9,3.7-2.4,5.3L298,310.5z M287.6,297.6l10.5,10.9l2.6-2.6c1.2-1.2,1.9-2.6,1.9-4.3
					s-0.7-3.2-2-4.5l-1.6-1.6c-1.2-1.3-2.7-2-4.4-2.2c-1.7-0.2-3.1,0.5-4.4,1.6L287.6,297.6z"/>
				<path class="st2" d="M311.1,284.3l-5.5,6.4l5.6,4.7l6.4-7.4l0.9,0.8l-7.3,8.4l-13.4-11.5l7.2-8.4l0.9,0.8l-6.3,7.4l5,4.3
					l5.5-6.4L311.1,284.3z"/>
				<path class="st2" d="M323.9,274c-0.8-0.5-1.6-0.7-2.6-0.5c-0.9,0.2-2.1,0.9-3.5,2.2c-1.5,1.3-2.9,2.1-4.1,2.5s-2.3,0.2-3.4-0.6
					c-1.1-0.8-1.7-1.9-1.7-3.3c-0.1-1.4,0.5-2.8,1.5-4.3c1.1-1.5,2.3-2.4,3.8-2.7c1.5-0.3,2.8-0.1,4,0.8v0.1l-0.8,1.1
					c-0.9-0.7-2-0.9-3.1-0.6c-1.1,0.2-2.1,0.9-2.9,2.1c-0.9,1.2-1.2,2.2-1.2,3.3c0.1,1,0.5,1.8,1.2,2.3s1.6,0.6,2.5,0.4
					s2.1-1,3.5-2.2c1.5-1.2,2.9-2.1,4.1-2.4s2.4-0.1,3.5,0.7c1.2,0.8,1.7,1.9,1.7,3.3s-0.5,2.9-1.6,4.3c-1,1.5-2.3,2.4-3.7,3
					c-1.5,0.5-2.9,0.3-4.3-0.7l-0.1-0.1l0.8-1.1c1.1,0.8,2.3,0.9,3.4,0.5c1.2-0.5,2.1-1.2,2.9-2.4c0.8-1.2,1.2-2.2,1.2-3.3
					S324.7,274.7,323.9,274z"/>
				<path class="st2" d="M331.9,269.4l-0.8,1.2l-15.1-9.1l0.8-1.2L331.9,269.4z"/>
				<path class="st2" d="M339.2,251.3c0.3,0.6,0.5,1.5,0.5,2.6c0,1.2-0.4,2.5-1.1,3.9c-0.9,1.9-2.3,3-4.1,3.6s-3.7,0.3-5.7-0.7
					l-2.9-1.5c-1.9-1-3.3-2.3-4-4c-0.7-1.7-0.5-3.5,0.3-5.3c0.9-1.7,1.9-2.8,3.3-3.3c1.3-0.5,2.7-0.5,4.1,0l0.1,0.1l-0.6,1.2
					c-1.2-0.3-2.3-0.3-3.3,0.1c-1,0.4-1.9,1.2-2.6,2.6c-0.7,1.4-0.8,2.8-0.2,4.2c0.6,1.4,1.7,2.5,3.3,3.3l3,1.5
					c1.6,0.9,3.3,1.1,4.7,0.7c1.6-0.4,2.6-1.3,3.4-2.8c0.5-1,0.9-2,0.9-2.9c0.1-0.9,0-1.5-0.2-2l-4.1-2.1l-2.1,4.2l-1.1-0.5l2.8-5.5
					L339.2,251.3z"/>
				<path class="st2" d="M348.4,234l-0.5,1.3l-17.7,4.1v0.1l14.2,5.3l-0.5,1.4l-16.5-6.1l0.5-1.4l17.7-4.1v-0.1l-14.2-5.3l0.5-1.3
					L348.4,234z"/>
				<path class="st2" d="M344.6,215.6l-2.1,8.2l7.1,1.9l2.4-9.4l1.2,0.3l-2.8,10.8l-17.1-4.4l2.8-10.8l1.2,0.3l-2.4,9.4l6.4,1.6
					l2.1-8.2L344.6,215.6z"/>
				<path class="st2" d="M346.5,208.8l7.9,1.2l-0.2,1.4l-17.5-2.7l0.9-5.9c0.3-1.9,0.9-3.3,1.9-4.1c1-0.9,2.3-1.2,3.8-0.9
					c0.9,0.2,1.7,0.5,2.3,1.2c0.6,0.6,1.1,1.5,1.2,2.5c0.5-1,1-1.7,1.8-2.1c0.8-0.4,1.7-0.5,2.7-0.3l1.6,0.2c0.5,0.1,1,0.1,1.5,0
					s0.9-0.2,1.2-0.5l0.3,0.1l-0.2,1.5c-0.3,0.2-0.8,0.4-1.3,0.5s-1.1,0-1.6-0.1l-1.6-0.2c-1.1-0.2-1.9,0.1-2.7,0.6
					c-0.7,0.6-1.2,1.5-1.4,2.7L346.5,208.8z M345.3,208.6l0.7-4.3c0.2-1.5,0.1-2.8-0.4-3.6s-1.3-1.3-2.4-1.5
					c-1.2-0.2-2.1,0.1-2.8,0.7s-1.2,1.7-1.5,3.1l-0.7,4.5L345.3,208.6z"/>
				<path class="st2" d="M349.7,176.6v1.9h-2.2v-1.9H349.7z"/>
				<path class="st2" d="M347.8,154.9l7.8-1.2l0.2,1.4l-17.4,2.8l-0.9-5.9c-0.3-1.9-0.2-3.3,0.5-4.5c0.6-1.2,1.8-1.8,3.3-2.1
					c0.9-0.2,1.8,0,2.6,0.4s1.5,1.1,1.9,2c0.1-1.1,0.5-1.9,1.1-2.6c0.6-0.6,1.5-0.9,2.5-1.2l1.6-0.2c0.5-0.1,1-0.2,1.4-0.5
					s0.7-0.5,0.9-0.8l0.3-0.1l0.2,1.5c-0.2,0.3-0.6,0.6-1.1,0.9s-1,0.4-1.6,0.5l-1.6,0.2c-1.1,0.2-1.9,0.6-2.3,1.5
					c-0.5,0.8-0.6,1.8-0.5,3L347.8,154.9z M346.5,155.1l-0.7-4.3c-0.2-1.5-0.8-2.6-1.5-3.3c-0.7-0.6-1.6-0.9-2.7-0.7
					c-1.2,0.2-1.9,0.7-2.5,1.5c-0.5,0.9-0.6,1.9-0.4,3.4l0.7,4.5L346.5,155.1z"/>
				<path class="st2" d="M332.2,129.5l11.6-3.2c1.9-0.5,3.4-0.3,4.7,0.5c1.3,0.9,2.2,2.2,2.7,4s0.4,3.4-0.3,4.8s-1.9,2.3-3.8,2.9
					l-11.6,3.1l-0.4-1.4l11.6-3.2c1.5-0.4,2.5-1.2,3-2.2c0.5-1.1,0.6-2.3,0.2-3.6c-0.4-1.4-1.1-2.4-2.1-3.1c-1-0.7-2.3-0.8-3.7-0.4
					l-11.6,3.2L332.2,129.5z"/>
				<path class="st2" d="M347.2,118.6l-16.5,6.3l-1.9-4.8c-0.7-1.7-0.9-3.2-0.5-4.4c0.4-1.2,1.2-2.1,2.7-2.7
					c0.9-0.3,1.7-0.4,2.5-0.2c0.8,0.2,1.5,0.7,2.1,1.5c-0.2-1.1-0.1-2.1,0.5-3c0.5-0.9,1.2-1.5,2.3-1.9c1.5-0.5,2.8-0.5,4,0.2
					s2,1.8,2.6,3.3L347.2,118.6z M337.6,120.8l-1.5-3.8c-0.5-1.2-1.1-2-1.9-2.5s-1.7-0.5-2.7-0.1s-1.7,1.1-1.9,1.9s-0.2,2,0.4,3.3
					l1.3,3.5L337.6,120.8z M338.8,120.4l6.8-2.6l-1.7-4.3c-0.5-1.2-1.2-2-2-2.5c-0.9-0.5-1.9-0.5-3-0.1c-1,0.4-1.7,1-2.1,1.9
					s-0.3,1.9,0.1,3.1L338.8,120.4z"/>
				<path class="st2" d="M317.7,106.3l-0.8-1.6l0.1-0.1l4.2,1.3l0.6,1.2L317.7,106.3z M328.4,97.4l3.8,7.6l6.5-3.3l-4.4-8.7l1.1-0.5
					l5,10l-15.8,7.9l-5-9.9l1.1-0.5l4.4,8.6l5.9-2.9l-3.8-7.6L328.4,97.4z"/>
				<path class="st2" d="M325.9,76.9l0.8,1.2l-7.5,16.6l0.1,0.1l12.8-8.1l0.8,1.2L318,97.3l-0.8-1.2l7.4-16.6l-0.1-0.1l-12.8,8.1
					l-0.8-1.2L325.9,76.9z"/>
				<path class="st2" d="M310.2,69.5l6-5.3l0.9,1.1l-13.3,11.5l-4-4.5c-1.2-1.4-1.9-2.8-1.9-4.1c-0.1-1.3,0.5-2.5,1.7-3.5
					c0.7-0.6,1.6-0.9,2.4-1c0.9-0.1,1.8,0.2,2.7,0.7c-0.5-1-0.6-1.9-0.5-2.7c0.2-0.8,0.7-1.6,1.6-2.3l1.2-1.1c0.4-0.4,0.8-0.7,1-1.1
					c0.2-0.4,0.4-0.8,0.4-1.2l0.2-0.2l1,1.1c0,0.4-0.2,0.9-0.5,1.2c-0.3,0.5-0.7,0.9-1.1,1.2l-1.2,1.1c-0.9,0.7-1.2,1.5-1.2,2.5
					c0,0.9,0.4,1.9,1.2,2.8L310.2,69.5z M309.2,70.3l-2.9-3.3c-1-1.2-2-1.9-3-2c-0.9-0.2-1.9,0.2-2.7,0.9c-0.9,0.8-1.3,1.6-1.3,2.6
					s0.5,2,1.5,3.1l3,3.4L309.2,70.3z"/>
				<path class="st2" d="M303.5,50.7l1,1l-12.4,12.5l-1-1L303.5,50.7z"/>
				<path class="st2" d="M298.5,45.9l-11.4,13.5l-3.9-3.3c-1.6-1.4-2.6-3.1-2.7-5.1s0.5-3.9,1.9-5.6l1.5-1.7
					c1.5-1.7,3.2-2.7,5.2-2.9s3.8,0.4,5.4,1.8L298.5,45.9z M286.8,57.4l9.9-11.5l-2.8-2.4c-1.3-1.2-2.8-1.6-4.5-1.4
					c-1.6,0.2-3.1,1-4.3,2.4l-1.5,1.8c-1.2,1.4-1.8,2.9-1.7,4.6c0.1,1.6,0.8,3,2.1,4.2L286.8,57.4z"/>
				<path class="st2" d="M273.8,33l6.7,4.6l4.3-3l1.2,0.9l-15.5,10.7l-1.2-0.8l4.6-18.3l1.2,0.9L273.8,33z M279.3,38.5l-5.9-4
					l-2.6,9.8l0.1,0.1L279.3,38.5z"/>
				<path class="st2" d="M250.4,34.2l5.7-10.4c0.9-1.7,2.2-2.7,3.7-3c1.6-0.3,3.1,0,4.7,0.9s2.7,2.1,3.3,3.5c0.5,1.5,0.3,3-0.6,4.7
					l-5.7,10.4l-1.2-0.7l5.7-10.4c0.7-1.3,0.9-2.6,0.5-3.7s-1.2-2.1-2.5-2.7c-1.2-0.7-2.5-0.9-3.7-0.6s-2.2,1.1-2.9,2.4L251.7,35
					L250.4,34.2z"/>
				<path class="st2" d="M248.6,22.8l3.1-7.4l1.3,0.5l-6.8,16.3l-5.5-2.3c-1.7-0.7-3-1.7-3.6-2.8c-0.6-1.2-0.6-2.5,0-3.9
					c0.4-0.9,0.9-1.5,1.7-2s1.7-0.7,2.7-0.6c-0.9-0.7-1.4-1.4-1.6-2.2c-0.2-0.9-0.1-1.8,0.4-2.7L241,14c0.2-0.5,0.3-1,0.4-1.5
					c0.1-0.5,0-0.9-0.2-1.2l0.1-0.2l1.4,0.5c0.2,0.4,0.2,0.9,0.1,1.4c-0.1,0.5-0.2,1.1-0.5,1.5l-0.6,1.5c-0.4,1-0.4,1.9,0,2.8
					s1.2,1.5,2.3,2L248.6,22.8z M248.2,23.9l-4-1.7c-1.5-0.6-2.6-0.8-3.6-0.5c-0.9,0.3-1.6,0.9-2,1.9c-0.5,1.1-0.5,2,0,2.9
					s1.3,1.5,2.7,2.2l4.2,1.8L248.2,23.9z"/>
				<path class="st2" d="M212.1,20.9l3-11.6c0.5-1.9,1.4-3.2,2.8-3.9c1.4-0.7,3-0.9,4.8-0.4s3.2,1.3,4,2.6c0.9,1.2,1.1,2.9,0.6,4.7
					l-3,11.6l-1.4-0.4l3-11.5c0.4-1.5,0.2-2.7-0.5-3.7s-1.7-1.7-3.1-2c-1.4-0.4-2.6-0.2-3.7,0.3s-1.8,1.5-2.2,3l-3,11.5L212.1,20.9z
					"/>
				<path class="st2" d="M203.3,11.8l-6.1,6.7l-1.7-0.2l7.1-7.7l-4.7-9.7l1.7,0.2l4,8.4l6.2-7l1.7,0.2l-7.1,8l4.6,9.4l-1.7-0.2
					L203.3,11.8z"/>
				<path class="st2" d="M183.6,7.4l0.2-7.4h1.5l-0.4,17.6l-6.1-0.1c-1.9,0-3.3-0.5-4.3-1.5c-1-0.9-1.5-2.2-1.5-3.8s0.5-2.8,1.6-3.7
					s2.5-1.4,4.3-1.3L183.6,7.4z M183.6,8.5L179,8.4c-1.5,0-2.6,0.3-3.3,1.1c-0.8,0.7-1.1,1.6-1.2,2.8c0,1.2,0.3,2.1,1,2.9
					c0.7,0.8,1.8,1.2,3.3,1.2l4.7,0.1L183.6,8.5z"/>
				<path class="st2" d="M166.9,8.2l-0.8-7.9l1.5-0.2l1.6,17.5l-6,0.5c-1.9,0.2-3.3-0.1-4.4-0.9c-1.1-0.7-1.7-1.9-1.9-3.5
					c-0.1-0.9,0.1-1.8,0.5-2.6c0.5-0.8,1.2-1.4,2.1-1.9C158.4,9,157.6,8.6,157,8s-0.9-1.5-0.9-2.6V4c-0.1-0.5-0.2-1-0.3-1.5
					c-0.2-0.4-0.4-0.8-0.8-1V1.2l1.5-0.2c0.3,0.2,0.5,0.6,0.8,1.2c0.2,0.5,0.3,1.1,0.3,1.6l0.2,1.6c0.1,1.1,0.5,1.9,1.3,2.5
					c0.8,0.5,1.8,0.8,3,0.7L166.9,8.2z M167,9.4l-4.3,0.4c-1.6,0.2-2.7,0.5-3.4,1.3c-0.7,0.7-0.9,1.6-0.9,2.7c0.1,1.2,0.5,2,1.3,2.6
					c0.8,0.5,1.9,0.8,3.4,0.6l4.5-0.4L167,9.4z"/>
				<path class="st2" d="M137.9,12c-0.5-2.2-0.2-4.2,0.8-5.8c0.9-1.6,2.5-2.6,4.5-3s3.8-0.1,5.3,1.1s2.5,2.8,2.9,5l0.5,2.8
					c0.5,2.2,0.2,4.2-0.7,5.8s-2.4,2.6-4.4,3c-2.1,0.4-3.9,0.1-5.4-1.1s-2.5-2.8-3-5L137.9,12z M139.9,14.5c0.4,1.9,1.2,3.3,2.3,4.3
					c1.2,0.9,2.6,1.2,4.3,0.9s2.8-1.2,3.5-2.5s0.9-2.9,0.5-4.8L150,9.5c-0.4-1.9-1.2-3.3-2.3-4.3s-2.6-1.2-4.2-0.9
					c-1.7,0.3-2.9,1.2-3.6,2.5s-0.9,2.9-0.5,4.8L139.9,14.5z"/>
				<path class="st2" d="M130.5,6.3l5.3,16.8l-4.9,1.5c-2.1,0.6-4,0.5-5.7-0.5c-1.8-0.9-3-2.5-3.7-4.6l-0.7-2.2
					c-0.7-2.2-0.5-4.1,0.4-5.9s2.4-3,4.4-3.6L130.5,6.3z M134.1,22.4l-4.6-14.5L126,9c-1.6,0.5-2.9,1.5-3.6,3s-0.8,3.1-0.2,4.9
					l0.7,2.2c0.5,1.8,1.6,3,3,3.9s3,1,4.7,0.5L134.1,22.4z"/>
				<path class="st2" d="M108.6,33.3l-4.8-10.9c-0.8-1.8-0.9-3.3-0.2-4.7c0.7-1.4,1.9-2.5,3.7-3.3c1.7-0.8,3.3-0.9,4.7-0.4
					c1.5,0.5,2.6,1.6,3.3,3.3l4.8,10.9l-1.3,0.5l-4.7-10.9c-0.6-1.4-1.5-2.2-2.6-2.6c-1.2-0.4-2.4-0.3-3.7,0.2
					c-1.3,0.5-2.3,1.4-2.8,2.6c-0.5,1.1-0.5,2.3,0.2,3.7l4.7,10.9L108.6,33.3z"/>
				<path class="st2" d="M87.9,30.9L87.9,30.9c-0.8-1.6-0.9-3.2-0.5-4.6c0.5-1.4,1.5-2.6,3.1-3.5c1.7-0.9,3.4-1.2,5.2-0.5
					c1.8,0.6,3.2,1.9,4.3,3.9l1.4,2.5c1.1,1.9,1.5,3.9,1.2,5.6s-1.4,3.3-3.1,4.2c-1.6,0.9-3.2,1.2-4.7,0.9S92,38.2,91,36.7v-0.1
					l1.2-0.7c0.9,1.2,1.9,1.9,3,2.2s2.3,0.1,3.6-0.7c1.3-0.8,2.1-1.9,2.3-3.4c0.2-1.5-0.2-3-1-4.6l-1.4-2.5
					c-0.9-1.6-2.1-2.8-3.5-3.3s-2.8-0.5-4.1,0.3c-1.3,0.7-2.1,1.6-2.5,2.7c-0.3,1.1-0.2,2.3,0.4,3.7L87.9,30.9z"/>
				<path class="st2" d="M80.2,49.3l5-3.5l-9.4-13.4l1.2-0.9L86.3,45l5-3.5l0.7,1l-11.2,7.7L80.2,49.3z"/>
				<path class="st2" d="M60.9,43.9l12,12.8l-3.7,3.5c-1.6,1.5-3.3,2.2-5.4,2.1c-2-0.1-3.8-0.9-5.4-2.6L56.9,58
					c-1.6-1.6-2.3-3.5-2.3-5.5c0.1-2,0.9-3.7,2.4-5.2L60.9,43.9z M71.1,56.8l-10.4-11L58,48.3c-1.2,1.2-1.9,2.6-1.9,4.3
					c0.1,1.6,0.6,3.2,1.9,4.5l1.6,1.7c1.2,1.3,2.7,2.1,4.3,2.2c1.6,0.2,3.1-0.4,4.4-1.6L71.1,56.8z"/>
				<path class="st2" d="M47.5,69.8l5.6-6.3l-5.5-4.8L41.2,66l-0.9-0.9l7.4-8.4L61,68.3l-7.4,8.4l-0.9-0.9l6.4-7.3l-5-4.3l-5.6,6.3
					L47.5,69.8z"/>
				<path class="st2" d="M34.6,79.9c0.8,0.5,1.6,0.7,2.6,0.5c0.9-0.2,2.1-0.9,3.5-2.1c1.6-1.2,2.9-2.1,4.1-2.4
					c1.2-0.3,2.3-0.2,3.4,0.6c1.1,0.8,1.6,1.9,1.7,3.3c0,1.4-0.5,2.8-1.5,4.2c-1.1,1.5-2.3,2.3-3.8,2.6c-1.5,0.3-2.8,0-4-0.9v-0.1
					l0.8-1.1c0.9,0.7,2,0.9,3.1,0.7c1.1-0.2,2.1-0.9,3-2.1s1.2-2.2,1.2-3.3c-0.1-1-0.5-1.8-1.2-2.3s-1.6-0.7-2.5-0.4
					c-0.9,0.2-2.1,0.9-3.5,2.2c-1.5,1.2-2.9,2-4.1,2.3c-1.2,0.3-2.4,0.1-3.5-0.7c-1.2-0.9-1.7-1.9-1.7-3.3s0.5-2.9,1.6-4.3
					s2.3-2.4,3.8-2.9s2.9-0.3,4.3,0.7l0.1,0.1l-0.8,1.1c-1.1-0.8-2.3-1-3.3-0.5c-1.2,0.5-2.1,1.2-3,2.3c-0.9,1.2-1.2,2.2-1.2,3.3
					C33.3,78.6,33.7,79.3,34.6,79.9z"/>
				<path class="st2" d="M26.5,84.5l0.8-1.2l15,9.3l-0.8,1.2L26.5,84.5z"/>
				<path class="st2" d="M18.9,102.5c-0.3-0.6-0.5-1.5-0.4-2.6c0.1-1.2,0.5-2.4,1.2-3.9c0.9-1.8,2.3-3,4.2-3.5
					c1.9-0.5,3.7-0.2,5.7,0.8l2.9,1.5c1.9,1,3.3,2.4,3.9,4.1s0.5,3.5-0.4,5.3c-0.9,1.7-2,2.8-3.3,3.3s-2.7,0.5-4.1-0.1l-0.1-0.1
					l0.6-1.2c1.2,0.4,2.3,0.4,3.3,0c1-0.4,1.9-1.2,2.6-2.6c0.7-1.4,0.8-2.8,0.2-4.2c-0.5-1.4-1.6-2.5-3.3-3.3L29,94.6
					c-1.6-0.9-3.2-1.1-4.7-0.7c-1.6,0.4-2.6,1.3-3.4,2.8c-0.5,1-0.9,2-0.9,2.9c-0.1,0.9,0,1.5,0.2,2l4.1,2.1l2.2-4.2l1.1,0.5
					l-2.9,5.4L18.9,102.5z"/>
				<path class="st2" d="M9.6,119.7l0.5-1.3l17.8-3.9v-0.1L13.7,109l0.5-1.3l16.5,6.3l-0.5,1.3l-17.8,3.9v0.1l14.1,5.4L26,126
					L9.6,119.7z"/>
				<path class="st2" d="M13.1,138.1l2.3-8.2L8.3,128l-2.6,9.4l-1.2-0.3l3-10.8l17,4.6l-3,10.7l-1.2-0.3L23,132l-6.4-1.7l-2.3,8.2
					L13.1,138.1z"/>
				<path class="st2" d="M11.1,145l-7.8-1.3l0.2-1.4l17.4,2.9l-1,5.9c-0.3,1.9-0.9,3.3-1.9,4.1c-1,0.9-2.3,1.2-3.8,0.9
					c-0.9-0.2-1.7-0.5-2.3-1.2s-1-1.5-1.2-2.6c-0.5,1-1.1,1.7-1.9,2.1c-0.8,0.4-1.7,0.5-2.7,0.2l-1.6-0.3c-0.5-0.1-1-0.1-1.5-0.1
					c-0.5,0.1-0.9,0.2-1.2,0.5l-0.3-0.1l0.2-1.3c0.3-0.2,0.8-0.4,1.3-0.4s1.1,0,1.6,0.1l1.6,0.2c1.1,0.2,1.9,0,2.7-0.6
					c0.7-0.6,1.2-1.5,1.4-2.7L11.1,145z M12.3,145.2l-0.7,4.3c-0.2,1.5-0.2,2.8,0.4,3.6c0.5,0.9,1.3,1.3,2.4,1.5
					c1.2,0.2,2.1,0,2.8-0.6c0.8-0.6,1.2-1.6,1.5-3.1l0.8-4.5L12.3,145.2z"/>
				<path class="st2" d="M7.7,169.8l0.1-1.9L10,168l-0.1,1.9L7.7,169.8z"/>
			</g>
		</g>
		<g id="Capa_5" class="st0">
		</g>
	</g>
	<g>
		<path d="M175,171.2c-0.5-7-1.2-16-6.7-15.1c-5.6,0.9-4.7,6.5-4.2,12c0.9,10.2,0.9,20.4,0.9,27.8c0,8.8,0,11.6,2.8,11.6
			c5.6,0.5,7.4-17.6,7.9-29.2c-5.3,0.7-7.6-0.7-7.6-3C168,173,170.1,171.9,175,171.2z"/>
		<path d="M232.6,173.7c-0.5-6.6-1.2-14.6-6.7-14.1c-4.2,0.3-4.1,5.5-3.6,10.8c0.9,9.6,0.3,19.3,0.3,26.3c0,8.3-0.8,10.9,1.9,10.9
			c5.4,0.4,7.4-16.2,7.9-27.1c-5.6,0.5-7.4-0.9-7.4-2.8C225,175.3,227.1,173.5,232.6,173.7z"/>
		<path d="M197,210.3c1.6,0.7,1.5-2.1,4.2-4.2c2.1-1.6,4.9-1.6,7.2-0.2c2.3,1.4,3.7,3.7,3.7,6c0,4.2-3,4.9-2.5,5.8
			c0.2,0.4,4.3-0.4,5.8-4.4c1.4-3.7-0.6-8.1-5.1-10.7c-4.2-2.3-8.1-1.6-10.7,0.5S196,209.9,197,210.3z"/>
		<path d="M203.5,264.1c-4.9,1.9-10.3,2.7-15.6,2.2c-0.2,0-0.5,0.1-0.5,0.4c0,0.1,0,0.2,0.1,0.3c2.5,4.5,5.6,10.8,8.4,10.7
			c2.7-0.1,6.5-6.9,8.7-12.5C204.8,264.4,204.8,263.4,203.5,264.1z"/>
		<path d="M264.6,200.3c0-7.8-4.2-11.2-6.7-12.5c-3.2-1.7-6.9-2-10.3-0.8c-0.1-4.6,0.3-9.2,1.1-13.8c0.4-2.3,0.6-4.7,0.6-7.1
			l1.2-2.7l4.1,5.6c1.4-4.7,5.3-32.7-2.6-42.1c12.8-14.6,10.2-32.7,7.4-36.4c-2.5,4.1-5.8,9.4-9.7,12.2c0-7.1-4.3-19.6-8.6-22.9
			c-1.3,9.9-5.3,14.5-7.9,17c1-10.2-4.1-15.8-6.1-16.8c-2,8.7-6.6,14.7-18.3,8.1c-11.7-6.6-59.5-45.2-89.4-2.5
			c-3.1-3.6-3.6-5.1-4.1-6.1c-2.5,4.6-2.5,13.2-2.5,13.2c-2.3-2.5-4-5.4-5.1-8.6c-3.6,6.1-9.7,14.7-1,30
			c-5.6,13.2-7.6,36.6-7.1,45.8c0.8-1,1.6-1.8,2.3-2.5c0.1,9.5,2.2,17.4,4,24.4c0.2,0.9,0.5,1.8,0.7,2.7l-0.5,0.1
			c-5.3,1-9,4.3-10.7,9.3c-3,9,1.2,22,7,28.6c3.1,3.4,6.5,5.8,9.9,7.1c1.4,3.2,4.6,5.3,8.1,5.3c0.9,0,1.8-0.1,2.7-0.4
			c4.4,16.9,22.1,39.5,22.7,42.1c0.7,3.2,8.1,8.8,8.1,8.8c0,0.2-0.1,0.4-0.2,0.6c-0.2,0.2-0.2,0.6,0,0.8c1.8,2.1,4.5,3,5.6,3.3
			c0.3,0.1,0.5,0.3,0.4,0.6c0,0,0,0.1,0,0.1c-0.1,0.2-0.2,0.4-0.3,0.5c-0.2,0.2-0.1,0.6,0.1,0.8c0,0,0,0,0.1,0
			c2,1.2,7.7,2.4,9.4,2.7c0.3,0,0.5,0.3,0.5,0.5v0.7c0,0.3,0.2,0.5,0.5,0.5c5.6,1.2,12.9-0.2,15.2-0.7c0.3-0.1,0.6,0.1,0.7,0.5
			c0,0.1,0,0.2,0,0.3c-0.1,0.3-0.2,0.5-0.3,0.8c-0.2,0.3-0.1,0.6,0.2,0.8c0.1,0.1,0.2,0.1,0.3,0.1c4,0.2,8.2-1.6,9.6-2.3
			c0.3-0.1,0.6,0,0.7,0.2l0.9,1.5c0.1,0.3,0.5,0.4,0.7,0.2c0,0,0,0,0,0c1.6-0.8,3.7-2.8,4.7-3.9c0.2-0.2,0.5-0.3,0.8-0.1
			c0.1,0.1,0.2,0.2,0.2,0.4c0.1,0.9,0.1,1.9-0.1,2.8c0,0.3,0.2,0.6,0.5,0.6c0.1,0,0.2,0,0.3,0c3.5-1.5,6.5-4.9,7.9-6.7
			c0.2-0.2,0.6-0.2,0.8,0c0.1,0.1,0.1,0.2,0.2,0.3c0.1,0.9,0.3,2.1,0.4,3.5c0,0.3,0.2,0.6,0.5,0.6c0.2,0,0.4-0.1,0.5-0.3
			c1.6-2.1,4.1-4.9,5.2-6.1c0.2-0.2,0.5-0.3,0.8-0.1c0.1,0.1,0.1,0.1,0.2,0.2c0.3,0.8,0.6,1.6,0.8,2.4c0.1,0.3,0.4,0.5,0.7,0.4
			c0.1,0,0.2-0.1,0.3-0.1c3.6-3.6,8.3-16.2,8.3-16.2l0.8,1.6c0.8-1.9,1.2-3.9,0.9-6c-0.1-0.3,0.1-0.6,0.3-0.7c0.2-0.1,0.5,0,0.7,0.2
			c0.2,0.2,0.5,0.3,0.8,0.1c0.1-0.1,0.2-0.2,0.2-0.4c0.9-4,7.1-19.9,9.1-26.2s3.4-11.5,4.4-15.6c4.4,2.3,9.7,0.5,12-3.8
			c1.5-2.8,1.3-6.2-0.4-8.9C262.7,212,264.6,206.4,264.6,200.3z M256,191.4c2.9,1.6,4.5,4.7,4.5,8.9c0,4.6-1.3,9.1-3.9,12.9
			c-0.8-0.4-1.6-0.8-2.4-1c-0.7-0.2-1.4,0.2-1.6,0.9c-0.2,0.7,0.2,1.4,0.9,1.6c0,0,0.1,0,0.1,0c0.5,0.1,0.9,0.3,1.4,0.5
			c-1.3,1.4-2.9,2.5-4.7,3.1c0.5-4.7,0.3-9.3-0.5-14.3c-0.2-1.5-0.4-2.9-0.7-4.2c-0.5-2.9-0.9-5.7-1.2-8.6
			C250.5,190.1,253.5,190.1,256,191.4L256,191.4z M117,219.1c-0.4-0.6-1.2-0.7-1.8-0.3c0,0,0,0,0,0c-2,1.4-3.2,3.6-3.6,6
			c-2.3-1.3-4.4-3-6.2-5c-5-5.6-8.7-17-6.2-24.6c1.2-3.6,3.8-5.9,7.6-6.6c7.1-1.3,9.8,1,10.3,1.6c0.8,0.8,1.5,1.5,2.1,1.2
			c0.4-0.2,0.5-1.3-0.1-2.2c-0.1-0.2-2.2-4.3-8.4-4.8l0,0c-0.3-1.2-0.6-2.3-0.9-3.6c-1.6-6.3-3.4-13.3-3.8-21.4l1.2,2.6l4.1-5.6
			l3.6,6.1l2.8-6.4l3.6,6.1c0,0,2.3-24.6,12.2-34.6c9.9-9.9,22.6-17,37.1-12.2c13.3,4.4,45.2,29.2,67.4,21.6
			c4.5,10.6,8.9,24.1,6.8,35.4c-1.1,5.8-1.5,11.7-1,17.5c0,0.2,0,0.4,0,0.5c0.3,3.4,0.8,6.6,1.3,9.9c0.2,1.4,0.4,2.7,0.7,4.2
			c0.4,2.7,0.7,5.4,0.8,8.1c-0.4,3.5-6.7,11-10.9,14c-1.6,14.4-6.4,13.4-6.4,12.8c-4,8-11.6,16.4-15.4,19.5
			c-0.1,0.1-0.2,0.3-0.2,0.4c-1,10.6-6.6,16.1-13.1,18.3c-1.3,0.3-2.6,0.6-3.8,0.8c-8.1,0.3-19.4-4.7-20.4-15.4
			c0-0.2-0.1-0.4-0.3-0.5c-12.2-5.5-23.7-21.2-26-25.8c-0.1-0.3-0.4-0.4-0.7-0.3c-3.6,1.4-6.3-6.2-3.1-11.6c0.2-0.3,0-0.6-0.4-0.8
			c-12-7.1-13.7-15-16.9-21.5c-0.8-1.6-5.7,0.2-5.7,2c0,0,0.1,15.5-0.8,19.7c0,0.1,0,0.2,0,0.3c-1.5,1.3-3.4,1.9-5.4,1.8
			c-1,0-2-0.2-3-0.5c0-2,1-3.8,2.6-5C117.3,220.5,117.5,219.7,117,219.1z M120.5,232.4c-1.7,0-3.4-0.7-4.5-1.9c0.3,0,0.7,0.1,1,0.1
			c1.8,0.1,3.6-0.3,5.3-1c0.1,0.8,0.2,1.6,0.3,2.4C122,232.2,121.3,232.4,120.5,232.4L120.5,232.4z M252.2,227.3
			c-1.2,0-2.4-0.3-3.4-1c0,0-0.1,0-0.1-0.1v-0.1c0.4-1.1,0.7-2.3,0.9-3.3c3.2-0.7,6.1-2.3,8.3-4.6c1.5,3.2,0.2,7-3,8.5
			C254,227.1,253.1,227.3,252.2,227.3L252.2,227.3z"/>
		<path d="M112.1,200.4c-2.2-1.6-5-1.6-7.5-0.7c-0.7,0.2-1,0.4-0.8,1.1s1,0.3,1.7,0.1c1.2-0.4,2.5,0,3.7,0.7
			c-1.9,1.1-3.1,3.4-3.7,6.4c-0.1,0.7-0.2,1.4,0.5,1.5c0.1,0,0.2,0,0.3,0c0.6,0,0.6-0.4,0.8-1c0.2-1.1,1.6-4.6,4.5-5.1h0.1
			c1.9,1.9,3,4.9,3,8.7c0,0.7,0.3,1.3,1,1.3s0.5-0.5,0.5-1.3C116.2,206.8,115.2,202.7,112.1,200.4z"/>
		<path d="M111.3,167.6c0.3-0.2,0.4-0.5,0.2-0.8c0,0.1,0-0.1,0-0.1c0,0,0-0.1-0.1-0.2c0-0.1-0.1-0.2-0.1-0.4c0-0.1-0.1-0.2-0.1-0.4
			l0-0.2c0,0,0-0.1,0-0.1c0,0,0-0.1,0-0.1c0,0,0-0.1,0-0.2s0-0.3,0-0.4c0-0.3,0-0.5,0-0.8c0-0.3-0.3-0.6-0.6-0.6
			c-0.3,0-0.5,0.3-0.5,0.6c-0.1,1.1,0.1,2.2,0.5,3.3C110.7,167.6,111,167.7,111.3,167.6z"/>
		<path d="M117.4,168.2c0.3-0.2,0.4-0.5,0.2-0.8c0,0.1,0-0.1,0-0.1s0-0.1-0.1-0.1c0,0-0.1-0.2-0.1-0.4c0-0.1-0.1-0.2-0.1-0.4
			c0-0.1,0-0.1,0-0.2c0,0,0-0.1,0-0.1c0,0,0-0.1,0-0.1v-0.2c0-0.1,0-0.3,0-0.4c0-0.2,0-0.5,0-0.7c0-0.3-0.2-0.6-0.5-0.6
			c0,0,0,0-0.1,0c-0.3,0-0.5,0.3-0.5,0.6c-0.1,1.1,0.1,2.2,0.5,3.3C116.8,168.1,117.1,168.2,117.4,168.2z"/>
		<path d="M123,168.7c0.3-0.2,0.4-0.5,0.2-0.8c0,0.1,0-0.1,0-0.1s0-0.1-0.1-0.2c0,0-0.1-0.2-0.1-0.4c0-0.1-0.1-0.2-0.1-0.4
			c0-0.1,0-0.1,0-0.2s0-0.1,0-0.1c0,0,0-0.1,0-0.1v-0.2c0-0.1,0-0.3,0-0.4c0-0.3,0-0.5,0-0.8c0-0.3-0.3-0.5-0.5-0.5
			c-0.3,0-0.5,0.2-0.6,0.5c-0.1,1.1,0.1,2.2,0.5,3.3C122.4,168.7,122.7,168.8,123,168.7z"/>
		<path d="M112.5,174.4c0-0.1,0-0.1-0.1-0.2c0-0.1-0.1-0.2-0.1-0.4c0-0.1-0.1-0.2-0.1-0.4c0-0.1,0-0.1,0-0.2c0,0,0-0.1,0-0.1
			c0,0,0-0.1,0-0.1v-0.2c0-0.1,0-0.3,0-0.4c0-0.2,0-0.5,0-0.7c0-0.3-0.2-0.6-0.5-0.6c0,0,0,0,0,0c-0.3,0-0.6,0.3-0.6,0.6
			c-0.1,1.1,0.1,2.2,0.5,3.3c0.2,0.3,0.5,0.4,0.8,0.2c0.3-0.2,0.4-0.5,0.2-0.8C112.5,174.6,112.5,174.4,112.5,174.4z"/>
		<path d="M118.1,175c0,0.1,0-0.1,0-0.1c0,0,0-0.1-0.1-0.2c0,0-0.1-0.2-0.1-0.4c0-0.1-0.1-0.2-0.1-0.4c0-0.1,0-0.1,0-0.2
			c0,0,0-0.1,0-0.1s0-0.1,0-0.1v-0.2c0-0.1,0-0.3,0-0.4c0-0.3,0-0.5,0-0.8c0-0.3-0.3-0.5-0.6-0.5c-0.3,0-0.5,0.3-0.5,0.5
			c-0.1,1.1,0.1,2.2,0.5,3.3c0.2,0.3,0.5,0.4,0.8,0.2c0.3-0.2,0.4-0.5,0.2-0.8L118.1,175z"/>
		<path d="M122.7,172.2c-0.3,0-0.5,0.2-0.6,0.5c-0.1,1.1,0.1,2.2,0.5,3.3c0.2,0.3,0.5,0.4,0.8,0.2c0.3-0.2,0.4-0.5,0.2-0.8
			c0,0.1,0-0.1,0-0.1c0,0,0-0.1-0.1-0.2c0-0.1-0.1-0.2-0.1-0.4c0-0.1-0.1-0.2-0.1-0.4l0-0.1c0,0,0-0.1,0-0.1s0-0.1,0-0.1
			c0,0,0-0.1,0-0.2s0-0.3,0-0.4c0-0.3,0-0.5,0-0.8C123.4,172.5,123.1,172.2,122.7,172.2C122.8,172.2,122.8,172.2,122.7,172.2z"/>
		<path d="M114.5,181.5c0-0.1,0-0.1-0.1-0.2c0,0-0.1-0.2-0.1-0.4c0-0.1-0.1-0.2-0.1-0.4c0-0.1,0-0.1,0-0.2c0,0,0-0.1,0-0.1
			s0-0.1,0-0.1V180c0-0.1,0-0.3,0-0.4c0-0.3,0-0.5,0-0.8c0-0.3-0.2-0.6-0.5-0.6c0,0,0,0,0,0c-0.3-0.1-0.6,0.1-0.7,0.4
			c0,0,0,0.1,0,0.1c-0.1,1.1,0.1,2.2,0.5,3.3c0.2,0.3,0.5,0.4,0.8,0.2C114.6,182.2,114.6,181.9,114.5,181.5
			C114.6,181.7,114.5,181.5,114.5,181.5z"/>
		<path d="M119.5,182.5c0,0,0-0.1-0.1-0.2c0-0.1-0.1-0.2-0.1-0.4s-0.1-0.2-0.1-0.4c0-0.1,0-0.1,0-0.2c0,0,0-0.1,0-0.1s0-0.1,0-0.1
			V181c0-0.1,0-0.3,0-0.4c0-0.3,0-0.5,0-0.8c0-0.3-0.2-0.6-0.5-0.6c-0.3,0-0.6,0.3-0.6,0.6c-0.1,1.1,0.1,2.2,0.5,3.3
			c0.2,0.3,0.5,0.4,0.8,0.2c0.3-0.2,0.4-0.5,0.2-0.8C119.6,182.7,119.5,182.5,119.5,182.5z"/>
		<path d="M124.2,183.7c0.2,0.3,0.5,0.4,0.8,0.2c0.3-0.2,0.4-0.5,0.2-0.8c0,0.1,0-0.1,0-0.1s0-0.1-0.1-0.2s-0.1-0.2-0.1-0.4
			s-0.1-0.2-0.1-0.4c0-0.1,0-0.1,0-0.2c0-0.1,0-0.1,0-0.1c0,0,0-0.1,0-0.1v-0.2c0-0.1,0-0.3,0-0.4c0-0.2,0-0.5,0-0.7
			c0-0.3-0.2-0.5-0.5-0.5c-0.3,0-0.5,0.3-0.5,0.5C123.7,181.5,123.8,182.7,124.2,183.7z"/>
		<path d="M125.7,190.8c0.2,0.3,0.5,0.4,0.8,0.2c0.3-0.2,0.4-0.5,0.2-0.8c0,0.1,0-0.1,0-0.1c0,0,0-0.1-0.1-0.2c0,0-0.1-0.2-0.1-0.4
			c0-0.1-0.1-0.2-0.1-0.4c0-0.1,0-0.1,0-0.2s0-0.1,0-0.1s0-0.1,0-0.1v-0.2c0-0.1,0-0.3,0-0.4c0-0.3,0-0.5,0-0.8
			c0-0.3-0.2-0.6-0.5-0.6c0,0,0,0-0.1,0c-0.3,0-0.5,0.3-0.5,0.6C125.2,188.6,125.3,189.8,125.7,190.8z"/>
		<path d="M122.4,198.1c0.3-0.2,0.4-0.5,0.2-0.8c0,0.1,0-0.1,0-0.1l-0.1-0.2c0-0.1-0.1-0.2-0.1-0.4c0-0.1-0.1-0.2-0.1-0.4l0-0.2
			c0,0,0-0.1,0-0.1s0-0.1,0-0.1v-0.2c0-0.1,0-0.2,0-0.4c0-0.3,0-0.5,0-0.8c0-0.3-0.2-0.6-0.5-0.6c-0.3,0-0.6,0.2-0.6,0.5
			c0,0,0,0,0,0c-0.1,1.1,0,2.2,0.5,3.3C121.8,198.2,122.1,198.3,122.4,198.1C122.4,198.1,122.4,198.1,122.4,198.1z"/>
		<path d="M128.5,198.6c0.3-0.2,0.4-0.5,0.2-0.8c0,0.1,0-0.1,0-0.1c0,0,0-0.1-0.1-0.2c0-0.1-0.1-0.2-0.1-0.4c0-0.1-0.1-0.2-0.1-0.4
			c0-0.1,0-0.1,0-0.2c0,0,0-0.1,0-0.1s0-0.1,0-0.1c0,0,0-0.1,0-0.2s0-0.3,0-0.4c0-0.3,0-0.5,0-0.8c0-0.3-0.2-0.6-0.5-0.6
			c0,0,0,0,0,0c-0.3,0-0.6,0.3-0.6,0.6c-0.1,1.1,0.1,2.2,0.5,3.3C128,198.6,128.3,198.7,128.5,198.6z"/>
		<path d="M154.8,154.6c1.5-1.5,3.6-3.4,5.1-3.8c3.7-0.9,9.6,3.1,16.4,7.7c1.4,0.9,2.8,1.9,4.3,2.9c0.3,0.2,0.7,0.3,1.1,0.3
			c0.7,0,1.1-0.9,1.5-1.5c0.5-0.9,0.4-1.7-0.5-2.3c-1.4-0.9-2.8-1.9-4.1-2.8c-8-5.4-14.3-9.7-19.7-8.3c-2.7,0.7-4.4,3.3-6.1,6.7
			c-0.5,1.1-0.5,1.5,0,2S154,155.4,154.8,154.6z"/>
		<path d="M216.6,162.5c0.4,0,0.8-0.1,1.1-0.3l2.1-1.4c5.4-3.6,11-7.3,14-6.5c1.4,0.2,2.6,1,3.3,2.1c0.5,1,1.5,2.4,2.1,1.9
			c0.7-0.7,0.5-2.6,0-3.6c-1.2-2.2-2.3-3.8-4.4-4.4c-4.8-1.2-10.6,2.6-17.3,7.1l-2.1,1.4c-0.9,0.6-0.8,1.5-0.2,2.5
			C215.7,161.8,215.9,162.5,216.6,162.5z"/>
		<path d="M147.6,230.4c0,1.4,0.9,1.9,1.4,0.9c0.5-0.8,1.1-1.6,1.9-2.3c3.3,9.7,11.6,21.8,23.2,28.3c4.4,2.5,9.3,4.1,14.3,4.8
			c6.2,0.7,12.4-0.2,18.1-2.8c2.1-0.9,4.1-2.1,6-3.3c8.1-5.5,14.4-17.6,15.3-19.5c0.9-1.9,2-4,2.3-3.7c0.2,0.2,0,1.1-0.2,2.1
			c-0.5,1.9,0.8,2.1,1.4,0.5c0.2-0.7,0.9-2.8,1.4-4.6c1-3.9,0.7-3.9-1.4-3.3c-7.4,2.8-15.3,7.9-37.1,7.9c-13.5,0.1-26.7-3.8-38-11.1
			c0.7-0.6,1.6-1.2,2.4-1.7c11.3,4.7,28,8.8,42.2,7.5c8.1,1,27.4-2.5,33.5-6.1c1.5-1,3.6-3.1-0.5-2.5c-4.1,0.5-12.2,1.5-21.8-2
			c-2.8-1-3.6,2-9.2,1.5c-5.1-0.5-4.6-3-9.7-2c-23.4,3.1-33,0.5-39.6-2.5c-4.4-2-6.1,0.5-1.5,3.1c1.1,0.6,2.4,1.2,3.7,1.9
			c-1.9,0.5-3.7,1.5-5.1,2.9C148.6,226.3,147.6,228.6,147.6,230.4z M185.6,259c-8.1-1.5-16.3-7.1-18.3-9.7c0.5-2,6-5,17,2.4
			c0.1,0,0.1,0,0.2,0c0,0,0-0.1,0-0.1c-0.4-1.8,0.1-2.2,1.6-2.2c6.1,0.5,9.7,3.6,11.2,7.6C197.8,258.5,193.1,260.4,185.6,259
			L185.6,259z M220.4,235.4c0,0,0,0.5-0.5,4.6c-30,8.1-54.9,1.5-62.5-10.2C177.7,240,199.6,242.5,220.4,235.4L220.4,235.4z"/>
	</g>
</g>
</svg>
