<?xml version="1.0" encoding="utf-8"?>
<!-- Generator: Adobe Illustrator 23.0.6, SVG Export Plug-In . SVG Version: 6.00 Build 0)  -->
<svg version="1.1" id="Capa_1" xmlns="http://www.w3.org/2000/svg" xmlns:xlink="http://www.w3.org/1999/xlink" x="0px" y="0px"
	 viewBox="0 0 44 44" style="enable-background:new 0 0 44 44;" xml:space="preserve">
<style type="text/css">
	.st0{fill:#FAFAFA;}
</style>
<path class="st0" d="M37.6,0H6.4C2.9,0,0,2.9,0,6.4v31.1C0,41.1,2.9,44,6.4,44h31.1c3.6,0,6.4-2.9,6.4-6.4V6.4C44,2.9,41.1,0,37.6,0
	z M15.6,34.9h-5.2v-18h5.2V34.9z M15.6,14.3h-5.2V9.1h5.2V14.3z M33.6,34.9h-5.2V24.6c0-1.4-1.2-2.6-2.6-2.6s-2.6,1.2-2.6,2.6v10.3
	h-5.2v-18h5.2v1c1.4-0.4,2.2-1,3.9-1c3.5,0,6.4,3.1,6.4,6.8V34.9z"/>
</svg>
