<svg id="Capa_1" data-name="Capa 1" xmlns="http://www.w3.org/2000/svg" viewBox="0 0 54.2 40.7"><defs><style>.cls-1{fill:none;stroke:#000;stroke-miterlimit:10;stroke-width:2px;}</style></defs><title>R-contorno</title><path class="cls-1" d="M40,52.9V66.1H25.2V27.4H60.4c10.8,0,16.3,3.3,16.3,9.9v.6a8.63,8.63,0,0,1-.8,3.6,6.72,6.72,0,0,1-2.1,2.6,11.65,11.65,0,0,1-2.5,1.6,10.64,10.64,0,0,1-2.5.9,10.63,10.63,0,0,1,5.8,3.2,8.78,8.78,0,0,1,2.1,6v5.6a9.77,9.77,0,0,0,.7,4.4v.3h-15a3,3,0,0,1-.5-2V59.6q0-3.45-1.8-5.1c-1.2-1.1-3.2-1.6-6.1-1.6Zm0-16.1v6.6H57q4.5,0,4.5-3.3V40q0-3.3-4.5-3.3l-17,.1Z" transform="translate(-24.2 -26.4)"/></svg>