<?xml version="1.0" encoding="utf-8"?>
<!-- Generator: Adobe Illustrator 23.0.6, SVG Export Plug-In . SVG Version: 6.00 Build 0)  -->
<svg version="1.1" id="Capa_1" xmlns="http://www.w3.org/2000/svg" xmlns:xlink="http://www.w3.org/1999/xlink" x="0px" y="0px"
	 viewBox="0 0 98.5 87.8" style="enable-background:new 0 0 98.5 87.8;" xml:space="preserve">
<path d="M88.1,9.5V0H0v76.4h10.4v11.4h88.1V9.5H88.1z M2,74.4V2h84.1v72.5L2,74.4L2,74.4z M96.6,85.8H12.4v-9.4h75.7v-65h8.4
	L96.6,85.8L96.6,85.8z"/>
<path d="M40,52.8v13.3H25.2V27.4h35.2c10.8,0,16.3,3.3,16.3,9.9v0.6c0,1.3-0.3,2.5-0.8,3.6s-1.2,1.9-2.1,2.6
	c-0.8,0.7-1.7,1.2-2.5,1.6s-1.6,0.7-2.5,0.9c2.5,0.6,4.4,1.6,5.8,3.2s2.1,3.6,2.1,6v5.6c0,2,0.2,3.5,0.7,4.4v0.3h-15
	c-0.3-0.3-0.5-1-0.5-2v-4.5c0-2.3-0.6-4-1.8-5.1s-3.2-1.6-6.1-1.6H40V52.8z M40,36.8v6.6h17c3,0,4.5-1.1,4.5-3.3V40
	c0-2.2-1.5-3.3-4.5-3.3L40,36.8L40,36.8z"/>
</svg>
