<?xml version="1.0" encoding="utf-8"?>
<!-- Generator: Adobe Illustrator 23.0.6, SVG Export Plug-In . SVG Version: 6.00 Build 0)  -->
<svg version="1.1" id="Capa_1" xmlns="http://www.w3.org/2000/svg" xmlns:xlink="http://www.w3.org/1999/xlink" x="0px" y="0px"
	 viewBox="0 0 108 26" style="enable-background:new 0 0 108 26;" xml:space="preserve">
<style type="text/css">
	.st0{display:none;}
	.st1{display:inline;}
	.st2{fill:none;stroke:#FAFAFA;}
	.st3{fill:#FAFAFA;}
</style>
<g>
	<g id="Capa_4" class="st0">
		<g id="R7TSMy.tif" class="st1">
		</g>
	</g>
	<g id="Capa_5" class="st0">
	</g>
	<path class="st2" d="M13,0.5h82c6.9,0,12.5,5.6,12.5,12.5l0,0c0,6.9-5.6,12.5-12.5,12.5H13C6.1,25.5,0.5,19.9,0.5,13l0,0
		C0.5,6.1,6.1,0.5,13,0.5z"/>
	<path class="st3" d="M15.5,17l-3.7-7.7H16l2.1,5l2-5h4L20.7,17H15.5z M30,10.9c-1.3,0-2,0.4-2.2,1.2h4.5
		C32.1,11.3,31.3,10.9,30,10.9z M36.1,14.2L36.1,14.2c0,0.3,0,0.5-0.1,0.8s-0.2,0.5-0.5,0.8c-0.2,0.3-0.6,0.5-1,0.7s-1,0.4-1.7,0.5
		s-1.6,0.2-2.5,0.2h-0.8c-0.9,0-1.7-0.1-2.4-0.2c-0.7-0.2-1.3-0.4-1.7-0.6c-0.4-0.3-0.7-0.6-1-0.9c-0.3-0.4-0.4-0.7-0.5-1.1
		c-0.1-0.4-0.1-0.7-0.1-1.1V13c0-2.6,1.9-3.9,5.7-3.9h0.8c0.7,0,1.3,0,1.9,0.1c0.6,0.1,1.1,0.2,1.5,0.4s0.7,0.3,1,0.6
		c0.3,0.2,0.5,0.5,0.7,0.7s0.3,0.5,0.4,0.8c0.1,0.3,0.2,0.6,0.2,0.8s0.1,0.5,0.1,0.8v0.4h-8.4c0.1,1,0.9,1.4,2.3,1.4l0,0
		c0.3,0,0.7,0,0.9-0.1c0.3-0.1,0.5-0.1,0.6-0.2c0.2-0.1,0.3-0.2,0.4-0.3c0.1-0.1,0.2-0.2,0.2-0.2c0-0.1,0-0.1,0.1-0.2h3.9
		C36.1,14.1,36.1,14.2,36.1,14.2z M40.9,9.3v1.4c0.1-0.2,0.3-0.4,0.5-0.6c0.2-0.2,0.6-0.4,1.1-0.6c0.5-0.2,1-0.3,1.6-0.3h0.2
		c0.6,0,1.1,0.1,1.6,0.3c0.4,0.2,0.8,0.5,1,0.8s0.4,0.7,0.5,1.1c0.1,0.4,0.2,0.8,0.2,1.2v0.8h-3.8V13c0-0.5-0.1-0.8-0.3-1.1
		s-0.6-0.4-1.1-0.4s-0.8,0.2-1.1,0.5c-0.2,0.3-0.4,0.7-0.4,1.2V17H37V9.3H40.9z M56.6,17h-3.9V9.3h3.9v1.4c1-1,2.3-1.6,3.8-1.6h0.1
		c1.5,0,2.6,0.5,3.2,1.6c1.1-1.1,2.5-1.6,4.1-1.6h0.1c0.7,0,1.2,0.1,1.7,0.3s0.9,0.4,1.1,0.7c0.3,0.3,0.4,0.6,0.6,1
		c0.1,0.3,0.2,0.6,0.2,1v5h-3.9v-3.7c0-1.2-0.5-1.8-1.6-1.8c-0.6,0-1.1,0.2-1.4,0.5s-0.5,0.8-0.5,1.3V17h-3.9v-3.7
		c0-1.2-0.5-1.8-1.6-1.8c-0.6,0-1.1,0.2-1.4,0.5c-0.3,0.3-0.5,0.8-0.5,1.3V17H56.6z M79.5,13.7v-0.3L77,13.8
		c-0.3,0.1-0.6,0.1-0.7,0.2S76,14.3,76,14.5l0,0c0,0.2,0.1,0.4,0.3,0.6c0.2,0.2,0.5,0.2,1,0.2c0.7,0,1.2-0.2,1.7-0.5
		C79.3,14.5,79.5,14.1,79.5,13.7z M79.6,16c-0.8,0.8-2,1.2-3.6,1.2h-0.2c-1.2,0-2.1-0.2-2.7-0.7s-0.9-1.1-0.9-1.8v-0.2
		c0-0.7,0.2-1.2,0.7-1.6c0.5-0.4,1.3-0.6,2.4-0.7l3.7-0.3c0.3,0,0.4-0.2,0.4-0.4c0-0.1,0-0.2-0.1-0.3s-0.2-0.1-0.5-0.2
		c-0.3-0.1-0.6-0.1-1.1-0.1h-0.1c-0.4,0-0.7,0-1,0.1c-0.2,0-0.4,0.1-0.5,0.2c-0.1,0.1-0.2,0.2-0.2,0.2s0,0.1-0.1,0.2h-3.6v-0.1
		c0-0.3,0-0.5,0.1-0.7c0-0.2,0.2-0.4,0.4-0.7s0.5-0.5,0.8-0.6c0.3-0.2,0.8-0.3,1.5-0.4c0.7-0.1,1.4-0.2,2.3-0.2h0.8
		c0.9,0,1.7,0.1,2.4,0.2c0.7,0.1,1.2,0.2,1.5,0.4s0.6,0.4,0.8,0.6c0.2,0.2,0.3,0.5,0.4,0.6c0,0.2,0.1,0.4,0.1,0.7v2.9
		c0,0.2,0.1,0.3,0.3,0.3H84V17h-3.3C80.1,17,79.7,16.7,79.6,16z M76.1,8.6l1.3-2.3h3.9l-1.6,2.3H76.1z M90.4,17.2h-0.8
		c-3.4,0-5.2-0.9-5.2-2.8v-0.1h4c0,0.1,0,0.2,0,0.3s0.1,0.2,0.2,0.3s0.3,0.2,0.5,0.3s0.5,0.1,0.9,0.1l0,0c0.6,0,1-0.1,1.3-0.2
		c0.2-0.1,0.3-0.3,0.3-0.5l0,0c0-0.2-0.1-0.4-0.3-0.4c-0.2-0.1-0.6-0.2-1.2-0.2h-1.6c-2.7-0.1-4-0.9-4-2.4v-0.1
		c0-0.3,0.1-0.6,0.2-0.9c0.1-0.3,0.4-0.5,0.7-0.8c0.4-0.2,0.9-0.4,1.6-0.5C87.7,9.1,88.6,9,89.6,9h0.8c3.4,0,5.1,0.8,5.1,2.4v0.1
		h-3.9c0-0.1-0.1-0.2-0.1-0.3s-0.2-0.2-0.4-0.3c-0.2-0.1-0.6-0.1-1-0.1l0,0c-0.6,0-1,0-1.2,0.1s-0.3,0.2-0.3,0.4l0,0
		c0,0.2,0.1,0.3,0.3,0.4c0.2,0.1,0.6,0.2,1.1,0.2h1.6c1.1,0,2,0.2,2.6,0.4s1,0.5,1.3,0.8c0.2,0.3,0.3,0.8,0.3,1.3v0.1
		c0,0.3,0,0.6-0.1,0.8s-0.2,0.5-0.5,0.7c-0.2,0.2-0.5,0.4-0.9,0.6c-0.4,0.2-0.9,0.3-1.6,0.4C92,17.2,91.3,17.2,90.4,17.2z"/>
</g>
</svg>
